<?xml version="1.0" encoding="utf-8"?>
<!-- Generator: Adobe Illustrator 28.1.0, SVG Export Plug-In . SVG Version: 6.00 Build 0)  -->
<svg version="1.1" id="Layer_1" xmlns="http://www.w3.org/2000/svg" xmlns:xlink="http://www.w3.org/1999/xlink" x="0px" y="0px"
	 viewBox="0 0 83 299" style="enable-background:new 0 0 83 299;" xml:space="preserve">
<style type="text/css">
	.st0{fill:#E5C28A;}
	.st1{fill:#D9B883;}
	.st2{fill:#010101;}
	.st3{fill:#52A5DA;}
	.st4{fill:#82142E;stroke:#030303;stroke-width:1.4331;}
	.st5{fill:#D49C57;stroke:#0A2321;stroke-width:1.0737;}
	.st6{fill:#231F20;}
	.st7{fill:none;}
	.st8{fill:none;stroke:#E2C288;stroke-width:0.6605;stroke-miterlimit:10;}
	.st9{fill:url(#SVGID_1_);}
	.st10{fill:url(#SVGID_00000091722475088198530950000003013563639366304175_);}
	.st11{fill:#E2C288;}
	.st12{opacity:0.71;}
	.st13{fill:#030303;}
	.st14{fill:#21150D;}
	.st15{fill:#898588;}
	.st16{fill:#8C2B40;}
	.st17{fill:#461316;}
	.st18{fill:#6C1828;}
	.st19{fill:#641625;}
	.st20{fill:#771B30;}
	.st21{fill:#821E37;}
	.st22{fill:#5D1320;}
	.st23{fill:#3A383E;}
	.st24{fill:#4D361B;}
	.st25{fill:#EDD1A4;}
	.st26{fill:#624828;}
	.st27{fill:#86693D;}
	.st28{fill:#A08153;}
	.st29{fill:#987B4E;}
	.st30{fill:#756043;}
	.st31{fill:#B29468;}
	.st32{fill:#887459;}
	.st33{fill:#C3A574;}
	.st34{fill:#907245;}
	.st35{fill:#D4B783;}
	.st36{fill:#70552D;}
	.st37{fill:#A98A5D;}
	.st38{fill:#7E6034;}
	.st39{fill:#FFFFFF;}
	.st40{fill:#BFBABA;}
	.st41{fill:#231E1E;}
	.st42{fill:#7A6850;}
	.st43{fill:#545153;}
	.st44{fill:#574833;}
	.st45{fill:#353030;}
	.st46{fill:#D9D5D6;}
	.st47{fill:#BFA071;}
	.st48{fill:#777377;}
	.st49{fill:#D3BE9C;}
	.st50{fill:#66636B;}
	.st51{fill:#9A8064;}
	.st52{fill:#EDD197;}
	.st53{fill:#634B3D;}
	.st54{fill:#CAA277;}
	.st55{fill:#DEB37F;}
	.st56{fill:#FFE6AD;}
	.st57{fill:#FFDBA0;}
	.st58{fill:#7E5E45;}
	.st59{fill:#F2CD95;}
	.st60{fill:#FFFBD3;}
	.st61{fill:#FFFCE7;}
	.st62{fill:#B78F69;}
	.st63{fill:#FFEFBF;}
	.st64{fill:#9E7C5B;}
	.st65{fill:#E9C38F;}
	.st66{fill:url(#SVGID_00000108271325388052998830000003486560958631137948_);}
	.st67{fill:url(#SVGID_00000016774005320784218950000002074469675460364194_);}
	.st68{fill:url(#SVGID_00000071535571221990356140000011948831418841259191_);}
	.st69{fill:#D49C57;}
	.st70{fill:#686565;}
	.st71{fill:url(#SVGID_00000022553025060926988640000011828831773077199751_);}
	.st72{fill:url(#SVGID_00000073691006997605470080000002982702577254462593_);}
	.st73{fill:#755D3F;}
	.st74{clip-path:url(#SVGID_00000001636994879305943260000008714374815850893473_);}
	.st75{fill:url(#SVGID_00000153688357962294503270000007134896243372334987_);}
	.st76{fill:url(#SVGID_00000044879075072731011880000005202100937142716559_);}
	.st77{fill:url(#SVGID_00000151533935593561844440000016417275459073125006_);}
	.st78{fill:url(#SVGID_00000100354174583478961420000018014373560245791365_);}
	.st79{fill:url(#SVGID_00000020376747106133477790000009242446400792193671_);}
	.st80{fill:url(#SVGID_00000075153887054630869410000008216482718095458193_);}
	.st81{fill:#10A24A;}
	.st82{fill:#332F8F;}
	.st83{fill:url(#SVGID_00000165221965093204437220000018101132394492836271_);}
	.st84{fill:url(#SVGID_00000039832932434579105280000000865678091466232458_);}
	.st85{opacity:0.74;clip-path:url(#SVGID_00000132773657826433178500000010883275757333498500_);}
	.st86{fill:url(#SVGID_00000076602492763136477490000009736932523809823878_);}
	.st87{fill:url(#SVGID_00000010992905270344212210000013353037707503966347_);}
	.st88{clip-path:url(#SVGID_00000100349207337003538060000008245711456135629190_);}
	.st89{fill:url(#SVGID_00000067223590739276451630000015741815560032089770_);}
	.st90{fill:url(#SVGID_00000000202424710187096390000007534841900503488167_);}
	.st91{fill:url(#SVGID_00000041986821125061797140000007341158368958969486_);}
	.st92{fill:#7E6037;}
	.st93{fill:#8F7146;}
	.st94{fill:#625135;}
	.st95{fill:#282318;}
	.st96{fill:#A88044;}
	.st97{fill:#C99752;}
	.st98{fill:#F2DBBD;}
	.st99{fill:#B39265;}
	.st100{fill:#EBC47C;}
	.st101{fill:#F9F1D4;}
	.st102{fill:#F4D391;}
	.st103{fill:#F6E3AF;}
	.st104{opacity:9.000000e-02;}
	.st105{fill:url(#SVGID_00000105419133127687500210000013375761139178229426_);}
	.st106{fill:url(#SVGID_00000117635777434520922150000003107222108998816395_);}
	.st107{clip-path:url(#SVGID_00000114762026296352658250000018239834875650218675_);}
	.st108{fill:url(#SVGID_00000116933836020195393840000011482118916641963911_);}
	.st109{fill:url(#SVGID_00000141441855217624713160000010361512609395372989_);}
	.st110{fill:url(#SVGID_00000109750005245170408260000003955557527579193784_);}
</style>
<path class="st1" d="M28.2,71.1c0.2,1.4-1.4,3.2-2.2,5.3l0.1,0.2L26,76.7c0,0,0,0,0,0l0,0c1.2,2.1,6.8,9.2,9.8,13.2v23.7
	c-1.7,1.4-5.9,5.1-5.9,6.3s4.2,4.8,5.9,6.3v6.9c-1.7,1.4-5.9,5.1-5.9,6.3c0,1.2,4.2,4.8,5.9,6.3v19.7c-3,4.1-8.5,11.2-9.8,13.2l0,0
	c0,0,0,0,0,0l0.1,0.2l-0.1,0.2c0.7,2.1,2.4,3.9,2.2,5.3c-0.1,0.8-8.3,6.7-8.4,8.2c0,1.4,8.2,7.3,8.4,8.2c0.2,1.4-1.4,3.2-2.2,5.3
	l0.1,0.2l-0.1,0.2c0,0,0,0,0,0l0,0c1.3,2.3,7.8,10.5,10.5,14.2c2.7-3.8,9.2-12,10.5-14.2v0c0,0,0,0,0,0l-0.1-0.2l0.1-0.2
	c-0.7-2.1-2.4-3.9-2.2-5.3c0.1-0.8,8.3-6.7,8.4-8.2c0-1.4-8.2-7.3-8.4-8.2c-0.2-1.4,1.4-3.2,2.2-5.3l-0.1-0.2l0.1-0.2c0,0,0,0,0,0v0
	c-1.1-1.9-6.1-8.3-9.2-12.4v-20.9c1.9-1.6,5.3-4.6,5.3-5.8c0-1.1-3.4-4.2-5.3-5.8v-7.9c1.9-1.6,5.3-4.6,5.3-5.8
	c0-1.1-3.4-4.2-5.3-5.8V89.2c3.1-4.1,8.1-10.5,9.2-12.4v0c0,0,0,0,0,0l-0.1-0.2l0.1-0.2c-0.7-2.1-2.4-3.9-2.2-5.3
	c0.1-0.8,8.3-6.7,8.4-8.2c0-1.4-8.2-7.3-8.4-8.2c-0.2-1.4,1.4-3.2,2.2-5.3l-0.1-0.2l0.1-0.2c0,0,0,0,0,0v0
	c-1.1-1.9-6.1-8.3-9.2-12.4V14.9c1.9-1.6,5.3-4.6,5.3-5.8c0-1.1-3.4-4.2-5.3-5.8V2.9h0V0h-2.1v2.9h0c-1.7,1.4-5.9,5.1-5.9,6.3
	c0,1.2,4.2,4.8,5.9,6.3v20.4c-3,4.1-8.6,11.2-9.8,13.2l0,0c0,0,0,0,0,0l0.1,0.2L26,49.4c0.7,2.1,2.4,3.9,2.2,5.3
	c-0.1,0.8-8.3,6.7-8.4,8.2C19.8,64.3,28,70.2,28.2,71.1z"/>
<path class="st1" d="M19.4,209.4V2.9V0h-2v2.9h0v204.5c0,3.1-2.5,5.6-5.6,5.6H-5v2h18.8C16.9,215,19.4,212.5,19.4,209.4z"/>
<path class="st2" d="M30.2,226.3c-14.5,0-26.4,11.5-26.4,25.6c0,14.1,11.8,25.6,26.4,25.6s26.4-11.5,26.4-25.6
	C56.6,237.8,44.8,226.3,30.2,226.3z"/>
<g>
	<g>
		
			<ellipse transform="matrix(1 -2.251377e-03 2.251377e-03 1 -0.5672 6.857113e-02)" class="st3" cx="30.2" cy="252" rx="23.4" ry="22.8"/>
	</g>
	<g>
		<g>
			<g>
				<g>
					<path class="st4" d="M18.1,265.1c0.5-0.5,0.7-1.1,0.9-1.7c0.1-0.6,0.2-2.1,0.2-8.4c0,0,0-15.4-0.1-15.8
						c-0.2-0.7-0.5-1.3-0.9-1.9l7.4,0c-0.5,0.5-0.8,1.1-0.9,1.8c-0.1,0.4-0.1,0-0.1,0.7l0,9.6c0.5,0.3,0.9,0.5,1.4,0.7
						c0.5,0.2,1,0.2,1.6,0.2c0.7,0,1.9-0.2,3.5-0.6c0.8-0.2,1.5-0.3,2.1-0.3c0.5,0,1.2,0,1.8,0.1c0.7,0.1,1.2,0.2,1.7,0.3l0-10.1
						c0-0.7,0-0.3-0.1-0.7c-0.2-0.7-0.5-1.3-0.9-1.9l7.4,0c-0.5,0.5-0.8,1.1-0.9,1.8c-0.1,0.4-0.1,15.8-0.1,15.8
						c0,6.4,0,7.9,0.1,8.3c0.2,0.7,0.5,1.3,0.9,1.8l-7.4,0c0.5-0.5,0.7-1.1,0.9-1.6c0.1-0.6,0.2-0.2,0.2-0.9l0-9.5
						c-0.5-0.2-0.9-0.3-1.2-0.4c-0.4-0.1-0.8-0.1-1.4-0.1c-0.8,0-1.7,0.1-2.5,0.3c-2,0.4-3.4,0.6-4,0.6c-1.2,0-2.2-0.2-3-0.5l0,9.6
						c0,0.7,0,0.3,0.1,0.7c0.2,0.7,0.5,1.3,0.9,1.8L18.1,265.1z"/>
				</g>
				<g>
					<path class="st5" d="M39.7,242.7c2.2,0,4.5,0.9,6.1,2.6c1.6,1.6,2.5,3.7,2.4,5.9c0,2.2-1,4.4-2.6,5.9c-1.7,1.6-3.9,2.5-6.6,2.5
						c-3.6,0-6-2.7-8.2-5.2l-0.4-0.4c-0.6-0.7-1.2-1.4-1.8-2.2c-2.2-2.7-4.4-5.6-7.8-5.6c-1.5,0-2.8,0.6-3.7,1.6
						c-1,1.1-1.4,2.6-1.2,4.1l0,0c0.5,2.4,2.6,4,5.2,4c1,0,2-0.3,2.8-0.8l0.2-0.1c0.5-0.3,1-0.6,1.1-1l0.3-1.2l3.2,3.9l-1.2,0.1
						c-0.4,0-0.8,0.4-1.3,0.7c-0.2,0.2-0.5,0.4-0.7,0.5c-0.2,0.1-0.5,0.3-0.7,0.4c-0.2,0.1-0.4,0.2-0.5,0.3l0,0l0,0
						c-1.1,0.5-2.3,0.7-3.5,0.7c-2.5,0-4.8-1-6.3-2.8c-1.7-1.7-2.4-4.2-2-6.7c0.4-2.7,2.1-5.1,4.5-6.4c1.2-0.9,2.6-1,3.8-1l0,0
						c0.2,0,0.4,0,0.6,0c3.4,0.1,5.9,2.5,8,4.8l0.8,0.8c0.6,0.7,1.2,1.4,1.8,2.2c2.2,2.7,4.4,5.6,7.8,5.6c1.5,0,2.9-0.6,3.8-1.7
						c1-1.1,1.4-2.6,1.3-4.1l0,0c-0.6-2.6-3.1-4-5.3-4c-1,0-2,0.3-2.8,0.8l-0.2,0.1c-0.5,0.3-1,0.6-1.1,1l-0.3,1.2l-3.1-3.8l1.1-0.2
						c0.4-0.1,0.6-0.1,1-0.4c1.7-1.4,3.3-2.2,5-2.3C39,242.7,39.4,242.7,39.7,242.7z"/>
				</g>
			</g>
		</g>
	</g>
</g>
<path class="st0" d="M37.4,217.8c-1-1.3-2.1-2.8-3.3-4.4c-2-2.7-4.3-5.6-5.4-7.3l0.1-0.1l-0.2-0.3c0.2-0.5,0.5-1,0.8-1.5
	c0.7-1.3,1.4-2.5,1.2-3.9c-0.1-0.9-0.8-1.5-3.8-4c-1.3-1.1-3.5-3-4.4-3.9c0.8-1,3.1-2.9,4.4-3.9c2.9-2.5,3.6-3.1,3.8-4
	c0.2-1.3-0.5-2.6-1.2-3.9c-0.3-0.5-0.5-0.9-0.7-1.4l0.1-0.1l-0.1-0.3c1.1-1.6,3.4-4.6,5.5-7.4c1.2-1.6,2.4-3.1,3.3-4.4l0.1,0.1
	c1,1.3,2.1,2.8,3.2,4.3c2,2.7,4.3,5.6,5.4,7.2l-0.1,0.1l0.2,0.3c-0.2,0.5-0.5,1-0.8,1.5c-0.7,1.3-1.4,2.5-1.2,3.9
	c0.1,0.9,0.8,1.5,3.8,4c1.3,1.1,3.5,3,4.4,3.9c-0.8,1-3.1,2.9-4.4,3.9c-2.9,2.5-3.6,3.1-3.8,4c-0.2,1.3,0.5,2.6,1.2,3.9
	c0.2,0.5,0.5,0.9,0.7,1.4l-0.1,0.1l0.1,0.3c-1.1,1.6-3.4,4.7-5.5,7.4C39.5,214.9,38.3,216.5,37.4,217.8z"/>
<path class="st0" d="M36.5,144.2c-3.1-2.7-4.5-4.2-5-4.9c0.4-0.6,1.8-2.2,5-4.9l0.3,0.3c3,2.5,4.3,4,4.6,4.6
	c-0.4,0.6-1.7,2.1-4.6,4.6L36.5,144.2z"/>
<path class="st0" d="M36.5,124.7c-3.1-2.7-4.5-4.2-5-4.9c0.4-0.6,1.8-2.2,5-4.9l0.3,0.3c3,2.5,4.3,4,4.6,4.6
	c-0.4,0.6-1.7,2.1-4.6,4.6L36.5,124.7z"/>
<path class="st0" d="M36.5,88.3c-1-1.3-2.1-2.8-3.3-4.4c-2-2.7-4.3-5.6-5.4-7.3l0.1-0.1l-0.2-0.4c0.2-0.5,0.5-1,0.8-1.5
	c0.7-1.3,1.4-2.5,1.2-3.9c-0.1-0.9-0.8-1.5-3.8-4c-1.3-1.1-3.5-3-4.4-3.9c0.8-1,3.1-2.9,4.4-3.9c3-2.5,3.7-3.1,3.8-4
	c0.2-1.3-0.5-2.6-1.2-3.9c-0.2-0.5-0.5-0.9-0.7-1.4l0.1-0.1l-0.1-0.3c1.1-1.6,3.4-4.7,5.5-7.4c1.2-1.6,2.3-3.1,3.3-4.4l0.1,0.1
	c1,1.3,2.1,2.8,3.2,4.3c2,2.7,4.3,5.6,5.4,7.2l-0.1,0.1l0.2,0.3c-0.2,0.5-0.5,1-0.8,1.5c-0.7,1.3-1.4,2.5-1.2,3.9
	c0.1,0.9,0.8,1.5,3.8,4c1.3,1.1,3.5,3,4.4,3.9c-0.8,1-3.1,2.9-4.4,3.9c-2.9,2.5-3.6,3.1-3.8,4c-0.2,1.3,0.5,2.6,1.2,3.9
	c0.3,0.5,0.5,0.9,0.7,1.4l-0.1,0.1l0.1,0.3c-1.1,1.6-3.4,4.7-5.5,7.4c-1.1,1.5-2.3,3-3.2,4.3L36.5,88.3z"/>
<path class="st0" d="M36.5,14c-3.1-2.7-4.5-4.2-5-4.9c0.4-0.6,1.8-2.2,5-4.9l0.3,0.3c3,2.5,4.3,4,4.6,4.6c-0.4,0.6-1.7,2.1-4.6,4.6
	L36.5,14z"/>
<g>
	<path d="M29,188.4c0.6,0.1,1.1-0.1,1.6-0.3c0.6-0.3,1.1-0.6,1.5-1.1c0.4-0.4,0.6-0.4,1,0c0.1,0.1,0.2,0.3,0.3,0.4
		c0.1,0.2,0.3,0.2,0.4,0.2c0.4,0,0.6,0.2,0.8,0.5c0.2,0.4,0.4,0.7,0.7,0.9c0.2,0.1,0.4,0.2,0.6,0.1c0.2,0,0.3,0,0.5,0
		c0.1,0,0.1,0,0.1-0.1c0-0.3,0-0.5,0-0.8c0-0.2-0.1-0.2-0.2-0.2c-0.3-0.1-0.5-0.1-0.8-0.2c-0.1,0-0.2-0.1-0.2-0.2
		c-0.3-0.2-0.3-0.7,0-0.9c0.4-0.2,0.4-0.8,0.1-1.2c-0.3-0.3-0.6-0.4-1-0.5c-0.6,0-1.2,0.2-1.7,0.5c-0.6,0.4-1.2,0.9-1.8,1.3
		c-0.7,0.5-1.5,1-2.4,1.4c0,0-0.1,0-0.1,0.1c0,0,0,0,0,0.1C28.7,188.3,28.9,188.4,29,188.4z M45.6,188c-1-0.4-1.9-1-2.7-1.6
		c-0.5-0.4-1.1-0.8-1.6-1.1c-0.4-0.3-0.9-0.4-1.4-0.4c-0.4,0-0.8,0.2-1,0.6c-0.2,0.4-0.1,0.9,0.2,1.1c0.3,0.2,0.3,0.5,0.1,0.8
		c-0.3,0.3-0.6,0.4-1,0.5c-0.3,0-0.3,0-0.3,0.3c0,0.2,0,0.5,0,0.7c0,0.1,0,0.2,0.2,0.2c0.1,0,0.3,0,0.4,0c0.5,0,0.9-0.2,1.2-0.7
		c0.1-0.1,0.1-0.3,0.2-0.4c0.1-0.3,0.4-0.5,0.7-0.5c0.2,0,0.3-0.1,0.4-0.2c0.1-0.2,0.2-0.3,0.4-0.5c0.3-0.3,0.5-0.4,0.8-0.1
		c0.4,0.4,0.8,0.7,1.2,1c0.6,0.3,1.2,0.6,1.9,0.6c0.1,0,0.2,0,0.3,0c0,0,0.1,0,0.2-0.1C45.7,188.1,45.7,188.1,45.6,188z M38.3,194
		c0.3,0.4,0.4,0.8,0.1,1.2c-0.3,0.4-0.6,0.6-1,0.8c-0.5,0.3-1,0.5-1.5,1c-0.8,0.8-0.9,2.1,0.4,2.8c0,0,0.1,0,0.1,0
		c0.2-0.1,0.3-0.2,0.5-0.3c0.1-0.1,0.1-0.1,0-0.2c-0.1-0.1-0.2-0.2-0.3-0.3c-0.2-0.3-0.3-0.6-0.1-1c0.2-0.3,0.5-0.5,0.9-0.8
		c0.4-0.3,0.9-0.6,1.3-0.9c0.5-0.4,0.9-0.9,1-1.6c0.1-0.5,0-1-0.5-1.4c-0.1-0.1-0.2-0.1-0.3,0c-0.2,0.1-0.5,0.2-0.7,0.3
		c-0.1,0-0.1,0.1-0.2,0.1c0,0,0,0,0,0.1C38.1,193.8,38.2,193.9,38.3,194z M39.6,190.6c0,0.5-0.3,0.8-0.6,1c-0.5,0.3-1,0.5-1.5,0.6
		c-0.5,0.2-1.1,0.4-1.5,0.7c-0.4,0.3-0.7,0.6-0.8,1c-0.2,0.5-0.1,1.1,0.3,1.5c0.2,0.3,0.5,0.6,0.8,0.8c0.1,0,0.1,0,0.2,0
		c0.1-0.1,0.3-0.2,0.4-0.2c0.1-0.1,0.2-0.2,0-0.3c0-0.1-0.1-0.1-0.2-0.1c-0.7-0.6-0.7-1.3,0.1-1.9c0.4-0.2,0.8-0.4,1.1-0.6
		c0.3-0.2,0.7-0.3,1-0.5c0.4-0.2,0.7-0.6,0.9-1c0.2-0.5,0.1-1.1-0.2-1.4c-0.4-0.4-1-0.5-1.5-0.2c-0.1,0-0.2,0.1-0.2,0.2
		c0,0.1,0.1,0.2,0.2,0.2c0.2,0.1,0.4,0.2,0.6,0.2c0.4,0.1,0.6,0,0.7-0.4C39.5,190.3,39.6,190.5,39.6,190.6z M38.6,197.1
		c-0.2,0.1-0.4,0.3-0.6,0.4c-0.1,0.1-0.1,0.1,0,0.2c0,0,0,0,0.1,0.1c0.3,0.4,0.3,0.9-0.1,1.3c-0.2,0.2-0.4,0.3-0.6,0.4
		c-0.3,0.2-0.6,0.3-0.9,0.6c-0.8,0.6-0.8,1.6-0.1,2.2c0.2,0.2,0.2,0.2,0.5,0c0.3-0.2,0.3-0.2,0.1-0.4c-0.3-0.3-0.3-0.7,0-1
		c0.2-0.2,0.5-0.3,0.7-0.5c0.4-0.2,0.8-0.5,1-0.8c0.3-0.4,0.6-0.8,0.6-1.4c0-0.4-0.2-0.8-0.5-1.1C38.8,197.1,38.7,197.1,38.6,197.1
		C38.7,197.1,38.6,197.1,38.6,197.1z M37.6,192.1c0,0,0.1-0.1,0.1-0.2c0-0.9,0-1.7,0-2.6c0-0.8,0-1.6,0-2.3c0-0.2,0-0.2-0.2-0.2
		c-0.1,0-0.2,0-0.3,0c-0.1,0-0.2,0-0.2,0.1c0,0.4,0,0.8,0,1.2c0,1.3,0,2.6,0,3.9c0,0.1,0,0.1,0,0.2
		C37.2,192.2,37.4,192.2,37.6,192.1z M38,201c0.2,0.2,0.2,0.4,0,0.6c-0.1,0.1-0.3,0.3-0.5,0.4c-0.3,0.2-0.6,0.4-0.9,0.6
		c-0.4,0.4-0.6,1-0.4,1.4c0.2,0.4,0.5,0.6,0.8,0.7c0,0,0.1,0,0.1,0c0-0.1,0-0.2-0.1-0.3c-0.6-0.4-0.5-1,0-1.4
		c0.2-0.2,0.4-0.3,0.6-0.4c0.3-0.2,0.6-0.4,0.9-0.7c0.3-0.5,0.3-1,0-1.4c-0.1-0.1-0.1-0.1-0.2,0c-0.1,0.1-0.3,0.2-0.5,0.3
		C37.9,200.9,37.9,201,38,201z M35.8,190.7c0.3,0,0.5-0.1,0.8-0.3c0.1-0.1,0.1-0.2,0-0.3c-0.4-0.2-0.8-0.3-1.2-0.1
		c-0.7,0.4-0.8,1.1-0.4,1.7c0.3,0.4,0.6,0.7,1.1,0.9c0,0,0.1,0,0.1,0c0.2-0.1,0.3-0.1,0.5-0.2c0.1-0.1,0.1-0.2,0-0.3
		c-0.2-0.1-0.4-0.2-0.6-0.3c-0.3-0.2-0.6-0.4-0.8-0.8c-0.1-0.2-0.1-0.4-0.1-0.6c0-0.1,0.1-0.2,0.1-0.3c0,0,0,0,0,0
		C35.2,190.6,35.4,190.7,35.8,190.7z M36.4,189.6c-0.4,0-0.8,0.1-1.1-0.1c-0.3-0.1-0.6-0.4-0.8-0.7c-0.1-0.1-0.2-0.1-0.3,0
		c-0.1,0.1-0.3,0.3-0.4,0.4c-0.1,0.1-0.1,0.2,0,0.3c0.2,0.4,0.5,0.6,0.8,0.8c0,0,0.1,0,0.1,0c0.5-0.5,1.1-0.6,1.7-0.4c0,0,0,0,0,0
		c0,0,0,0,0,0C36.6,189.6,36.6,189.5,36.4,189.6z M38,185.7c0-0.4-0.3-0.7-0.8-0.7c-0.4,0-0.7,0.4-0.7,0.8c0,0.4,0.3,0.7,0.8,0.7
		C37.6,186.5,38,186.1,38,185.7z M32.1,188.2c0.2-0.2,0.5-0.4,0.7-0.6c0.1-0.1,0.1-0.1,0-0.3c0,0,0,0-0.1,0c-0.2-0.2-0.3-0.2-0.5,0
		c-0.6,0.5-1.2,0.9-1.8,1.3c0,0-0.1,0.1-0.1,0.1c0,0,0.1,0.1,0.1,0.1c0.1,0,0.2,0,0.2,0C31.2,188.8,31.7,188.5,32.1,188.2z
		 M44,188.4c-0.6-0.3-1.2-0.7-1.7-1.1c0,0-0.1-0.1-0.1-0.1c-0.2-0.2-0.4-0.1-0.6,0.1c0,0,0,0.1,0,0.1c0.5,0.5,1.1,1,1.8,1.2
		c0.2,0.1,0.4,0,0.7,0c0.1,0,0.1,0,0.2-0.1c0,0,0,0,0-0.1C44.2,188.4,44.1,188.4,44,188.4z M38.1,189.8c0.6-0.2,1.1-0.1,1.5,0.2
		c0.1,0.1,0.2,0.1,0.3,0c0.3-0.2,0.5-0.4,0.7-0.6c0.1-0.1,0.1-0.2,0-0.3c-0.1-0.1-0.2-0.2-0.4-0.3c-0.1-0.1-0.2-0.1-0.2,0
		c-0.2,0.3-0.5,0.5-0.8,0.7c-0.3,0.1-0.6,0.1-0.9,0.1c-0.1,0-0.1,0-0.2,0c-0.2,0-0.3,0-0.2,0.3C38,189.8,38.1,189.8,38.1,189.8z
		 M33.2,187.8c-0.2-0.1-0.2-0.1-0.3,0c-0.4,0.4-0.8,0.7-1.3,1.1c-0.1,0.1-0.1,0.1-0.2,0.2c0.1,0,0.2,0.1,0.2,0.1
		c0.3,0,0.5,0,0.7-0.2c0.4-0.2,0.7-0.6,1-0.9c0,0,0-0.1,0.1-0.1C33.4,187.9,33.3,187.8,33.2,187.8z M42.9,188.8
		c-0.5-0.3-1-0.7-1.4-1.1c-0.2-0.2-0.2-0.2-0.4,0c-0.2,0.2-0.2,0.2,0,0.4c0.3,0.3,0.6,0.5,0.9,0.8c0.2,0.2,0.5,0.2,0.7,0.2
		c0.1,0,0.2-0.1,0.3-0.1c0,0,0,0,0-0.1C43,188.8,43,188.8,42.9,188.8z M37.9,203.3c0.4,0.3,0.3,0.8,0,1.1c-0.1,0.1-0.2,0.1-0.2,0.2
		c-0.1,0.1-0.1,0.1-0.1,0.2c0,0,0.1,0,0.2,0c0.5-0.2,0.8-0.5,0.9-1c0-0.3-0.1-0.6-0.3-0.9c-0.1-0.1-0.1-0.1-0.2,0
		c-0.1,0.1-0.2,0.2-0.4,0.2C37.8,203.2,37.9,203.2,37.9,203.3z M41.7,189.2c0.1,0,0.1-0.1,0.1-0.1c0,0-0.1-0.1-0.1-0.1
		c-0.3-0.3-0.6-0.6-0.9-0.9c-0.1-0.1-0.2-0.1-0.3-0.1c-0.4,0.2-0.4,0.2-0.1,0.5c0.2,0.2,0.4,0.4,0.6,0.5c0.1,0.1,0.3,0.1,0.5,0.2
		c0,0,0,0,0,0C41.6,189.2,41.6,189.2,41.7,189.2z M33.3,189.2c0.3-0.3,0.6-0.5,0.8-0.8c0,0,0-0.1,0-0.1c-0.1-0.1-0.2-0.1-0.3-0.1
		c-0.1,0-0.1,0-0.2,0.1c-0.3,0.3-0.6,0.6-0.9,0.9c0,0-0.1,0.1-0.1,0.1c0.1,0.1,0.2,0.1,0.2,0.1C33.1,189.3,33.2,189.3,33.3,189.2z
		 M37.5,195.5c0-0.4,0-0.9,0-1.3c0-0.1,0-0.2-0.1-0.2c-0.1,0-0.3,0.1-0.3,0.3c0,0.4,0,0.8,0,1.2c0,0.2,0,0.4,0,0.5
		C37.5,195.8,37.5,195.7,37.5,195.5z M37.2,198.2c0,0.3,0,0.6,0,1c0,0.1,0,0.1,0,0.2c0.2,0,0.3-0.1,0.3-0.3c0-0.3,0-0.6,0-0.9
		c0-0.1,0-0.1,0-0.2C37.2,197.9,37.2,198,37.2,198.2z M37.4,206.1c0-0.9,0-1.8,0-2.7c0,0,0-0.1-0.1-0.1c0,0-0.1,0.1-0.1,0.1
		c0,0.4,0,0.9,0,1.3c0,0.4,0,0.8,0,1.3c0,0.1,0,0.1,0,0.2c0,0,0,0,0.1,0C37.4,206.2,37.4,206.1,37.4,206.1z M37.6,204.4
		c0.2,0,0.4-0.3,0.4-0.5c0-0.2-0.2-0.4-0.4-0.4C37.6,203.8,37.6,204.1,37.6,204.4z M37.9,195.4c0.2-0.2,0.4-0.3,0.4-0.6
		c0,0,0-0.1,0-0.1c-0.1-0.2-0.2-0.3-0.4-0.4C37.9,194.7,37.9,195.1,37.9,195.4z M38.9,191.4C38.9,191.4,38.9,191.4,38.9,191.4
		c-0.1,0-0.1-0.1-0.2-0.1c-0.2,0-0.4,0.1-0.7,0.1c0,0-0.1,0.1-0.1,0.1c0,0.1,0,0.2,0,0.3C38.3,191.8,38.6,191.7,38.9,191.4z
		 M36.8,194.4c-0.2,0.1-0.3,0.2-0.4,0.4c-0.1,0.2,0.1,0.5,0.4,0.6C36.8,195.1,36.8,194.8,36.8,194.4z M37.1,203.5
		c-0.2,0.1-0.3,0.2-0.3,0.4c0,0.2,0.1,0.4,0.3,0.5C37.1,204.1,37.1,203.8,37.1,203.5z M36.6,191.9c0.1-0.2,0.1-0.3-0.2-0.4
		c-0.2,0-0.3-0.1-0.5-0.1c-0.1,0-0.1,0-0.2,0C35.9,191.6,36.3,191.9,36.6,191.9z M37.4,201.2c0,0-0.1-0.1-0.1-0.1
		c0,0-0.1,0.1-0.1,0.1c0,0.1,0,0.3,0,0.4c0,0.1,0,0.2,0,0.2c0,0,0,0.1,0.1,0.1c0,0,0.1-0.1,0.1-0.1c0-0.1,0-0.2,0-0.3c0,0,0,0,0,0
		C37.5,201.4,37.5,201.3,37.4,201.2z M37.9,191.2C37.9,191.2,38,191.3,37.9,191.2c0.3,0,0.4,0,0.6,0c0,0,0,0,0-0.1
		c-0.2-0.1-0.4-0.2-0.6-0.3C37.9,191,37.9,191.1,37.9,191.2z M36.1,191.1C36.1,191.2,36.1,191.2,36.1,191.1c0.2,0.1,0.3,0.2,0.5,0.2
		c0,0,0.1-0.1,0.1-0.1c0-0.1,0-0.2,0-0.4C36.4,191,36.2,191.1,36.1,191.1z M37.8,198.9c0.1-0.1,0.2-0.2,0.2-0.3
		c0-0.2-0.1-0.2-0.2-0.3C37.8,198.5,37.8,198.7,37.8,198.9z M36.8,199c0-0.2,0-0.4,0-0.6C36.6,198.5,36.6,198.8,36.8,199z
		 M37.9,201.5c0-0.1-0.1-0.1-0.1-0.2c0,0,0,0-0.1,0c0,0.1,0,0.3,0,0.4c0,0,0,0,0,0C37.8,201.7,37.9,201.6,37.9,201.5z M37,201.4
		c-0.2,0.1-0.2,0.2,0,0.4C37,201.6,37,201.5,37,201.4z"/>
</g>
<g>
	<path class="st6" d="M31.4,59.8c0.2,0.1,0.3,0.2,0.2,0.4c-0.1,0.9,0.1,1.7,0.5,2.4c0.2,0.5,0.6,0.9,0.9,1.3
		c0.4,0.4,0.8,0.8,1.2,1.3c0.6,0.6,1.1,1.4,1.5,2.2c0.1,0.2,0.1,0.4,0.1,0.6c0,2,0,3.9,0,5.9c0,0,0,0.1,0,0.1c0,0,0,0,0,0
		c0,0,0,0-0.1,0l0,0l0,0c0,0-0.1,0.1-0.1,0l0,0c0,0.1,0,0.1-0.1,0c0,0-0.1,0-0.1,0c0,0,0,0-0.1,0h0c0,0-0.1,0.1-0.1,0.1
		c-0.2,0.2-0.4,0.4-0.6,0.7l0,0l0,0c0,0,0,0.1-0.1,0.1c-0.3,0.7-0.2,1.3,0.2,1.9c0.6,0.8,1.6,1.1,2.5,0.7c0.9-0.4,1.4-1.4,1.2-2.3
		c0-0.1-0.1-0.3-0.2-0.4c-0.1-0.1-0.1-0.3-0.2-0.4c-0.2-0.3-0.5-0.5-0.9-0.7c0-0.1-0.1-0.1-0.1-0.2c0-0.6-0.1-1.3,0-1.9
		c0.1-0.5,0.3-1,0.5-1.4c0.4-0.9,1.1-1.6,1.7-2.3c0.7-0.8,1.3-1.6,1.6-2.6c0.2-0.7,0.3-1.3,0.2-2c0-0.1,0-0.2,0.1-0.2
		c0.2-0.2,0.4-0.3,0.5-0.5c0.4-0.6,0.5-1.1,0.3-1.8c0-0.1,0-0.1-0.1-0.1c-0.1-0.1-0.1-0.2-0.2-0.2c0,0,0,0,0,0l0,0c0,0-0.1,0-0.1,0
		c0,0,0,0,0,0c-0.1-0.1-0.2-0.2-0.4-0.2c0.1,0.1,0.2,0.2,0.4,0.2c0,0,0,0,0,0c0,0,0,0,0,0c0,0,0.1,0,0.1,0c0-0.1,0-0.1,0-0.1
		c-0.3-0.3-0.6-0.5-1-0.5c0,0,0,0-0.1,0c-0.2-0.1-0.4,0-0.6,0c-0.4,0.1-0.8,0.4-1,0.7c0,0.1-0.1,0.1-0.1,0.2c0,0,0,0,0,0
		c-0.1,0.2-0.1,0.4-0.1,0.6c0-0.2,0.1-0.4,0.1-0.6c-0.2,0.1-0.2,0.3-0.2,0.4c-0.2,0.9,0.4,1.8,1.1,2.1c0.2,0.1,0.3,0.2,0.2,0.4
		c0,0.3,0,0.5-0.1,0.8c-0.1,0.6-0.4,1-0.7,1.5c-0.3,0.4-0.6,0.8-1,1.1c0,0-0.1,0.1-0.1,0.2c-0.2,0-0.3,0.2-0.4,0.4
		c-0.2,0.1-0.3,0.3-0.5,0.4c-0.1,0-0.1-0.1-0.1-0.2c0-0.3,0-0.5,0-0.8c0-4.2,0-8.5,0-12.7c0-0.3,0-0.3,0.3-0.3c0.2,0,0.4,0,0.6,0
		c0.2-0.1,0.4-0.3,0.4-0.5c0,0,0,0,0-0.1c0,0,0,0,0,0c0.1,0,0.1,0,0.1-0.1c0.1-0.2,0.1-0.4,0-0.6c0,0,0,0,0-0.1c0,0,0,0,0,0
		c-0.1-0.1-0.2-0.1-0.3-0.2c0,0-0.1,0-0.1,0c0,0-0.1,0-0.1-0.1c0,0-0.1,0-0.1,0c-0.1,0-0.2,0-0.4,0c-0.2-0.1-0.1-0.2,0-0.3
		c0,0,0,0,0,0h0c0.1,0,0.1-0.1,0-0.1c0,0,0,0,0,0c0.1-0.1,0.1-0.2,0-0.2c0,0,0,0,0,0c0-0.1-0.1-0.2-0.2-0.2l0,0
		c-0.1-0.1-0.2-0.1-0.3-0.1l0,0c0-0.1,0-0.2-0.1-0.3c0-0.1,0-0.2-0.1-0.2c-0.1-0.1-0.1-0.2-0.2-0.2c-0.2,0-0.4-0.1-0.6-0.1
		c-0.1,0-0.2,0.1-0.3,0.2c-0.2,0.1-0.2,0.3-0.2,0.5c0,0.2,0,0.2-0.2,0.3c-0.4,0.1-0.5,0.5-0.2,0.8c0.1,0.1,0.2,0.1,0.1,0.2
		c0,0.1-0.2,0-0.2,0.1c-0.1,0-0.1,0-0.2,0c0,0-0.1,0-0.1,0c-0.1,0-0.2,0.1-0.3,0.1c0,0,0,0.1-0.1,0.1c0,0,0,0,0,0
		c-0.1,0.1-0.2,0.2-0.2,0.4c0,0,0,0.1,0,0.1c-0.1,0.1-0.1,0.1,0,0.1c0,0,0,0,0,0.1c0,0,0,0,0,0c0,0,0,0,0,0c0,0,0,0.1,0,0.1
		c0.1,0,0.1,0.1,0.1,0.2c0,0,0,0,0,0c0,0,0,0.1,0,0.1c0,0.1,0.1,0.2,0.2,0.2c0.3,0,0.5,0.1,0.8,0c0.2,0,0.2,0.1,0.3,0.2
		c0,0.2,0,0.4,0,0.6c0.1,0,0.1,0.1,0,0.1c0,0.1,0,0.2,0,0.3c0.1,0.2,0.1,0.4,0,0.5c0,0.1,0,0.2,0,0.3c-0.1,0.1,0,0.2,0,0.2
		c0.1,1.1,0,2.1,0,3.2c0,1.3,0,2.5,0,3.8c0,0.2,0,0.3,0,0.5c0,0.1-0.1,0.2-0.2,0.1c-0.1,0-0.1-0.1-0.2,0c0,0,0,0-0.1,0
		c0,0,0-0.1,0-0.1c0-0.1-0.1-0.1-0.2-0.2c0,0-0.1-0.1-0.1-0.1c0-0.1-0.1-0.1-0.2-0.2l0,0c-0.2-0.3-0.5-0.5-0.7-0.7
		c-0.1-0.1-0.2-0.2-0.3-0.3c-0.1,0-0.1-0.1-0.2-0.1c0,0,0,0-0.1,0c0,0,0,0,0-0.1c0-0.1,0-0.2-0.1-0.2c0,0,0,0,0,0c0,0,0,0.1,0,0.1
		l0,0c0,0,0-0.1,0-0.1c0,0,0,0,0,0c0-0.2-0.1-0.3-0.2-0.5c-0.3-0.5-0.4-1.1-0.5-1.6c0-0.1,0.1-0.2,0.2-0.2c0.6-0.2,0.9-0.6,1-1.2
		c0.1-0.4,0.1-0.9-0.1-1.2c-0.3-0.5-0.6-0.8-1.2-0.9c0,0,0,0-0.1,0c-0.1-0.1-0.1-0.1-0.2-0.1c-0.7-0.1-1.5,0.5-1.8,1.2
		C30.2,58.4,30.7,59.4,31.4,59.8z"/>
</g>
<ellipse class="st1" cx="18.5" cy="214" rx="5.6" ry="5.7"/>
<ellipse class="st0" cx="18.5" cy="214" rx="3.2" ry="3.1"/>
<path class="st7" d="M30.2,226.3c-14.5,0-26.4,11.5-26.4,25.6c0,14.1,11.8,25.6,26.4,25.6s26.4-11.5,26.4-25.6
	C56.6,237.8,44.8,226.3,30.2,226.3z"/>
<path class="st1" d="M1.8,246.2c0.2-1,0.5-1.9,0.8-2.9h-7.7v2.9H1.8z"/>
<path class="st1" d="M30.2,280.3c16,0,29-12.7,29-28.3c0-3.2-0.6-6.3-1.6-9.2l0-239.9h0V0h-2.7v2.9h0l0,234.4
	c-5.1-8.1-14.3-13.6-24.7-13.6c-12.9,0-23.9,8.3-27.6,19.7h0.1v0H2.6c-0.3,0.9-0.6,1.9-0.8,2.9c-0.4,1.9-0.6,3.8-0.6,5.7
	c0,11.2,6.8,20.9,16.5,25.5H-5v2.7c13.9,0,30.4,0,33.6,0C29.1,280.2,29.7,280.3,30.2,280.3z M2.6,252c0-14.9,12.4-27,27.7-27
	c15.3,0,27.7,12.1,27.7,27c0,14.9-12.4,27-27.7,27C14.9,278.9,2.6,266.9,2.6,252z"/>
<path class="st1" d="M71.6,0v2.9h0v284.4c0,0.7-0.6,1.3-1.4,1.3H-5V299h75.3c7,0,12.7-4.9,12.7-11.7V2.9V0H71.6z"/>
<path class="st0" d="M30.2,225c-15.3,0-27.7,12.1-27.7,27c0,14.9,12.4,27,27.7,27c15.3,0,27.7-12.1,27.7-27
	C57.9,237.1,45.5,225,30.2,225z M30.2,277.6c-14.5,0-26.4-11.5-26.4-25.6c0-14.1,11.8-25.6,26.4-25.6s26.4,11.5,26.4,25.6
	C56.6,266.1,44.8,277.6,30.2,277.6z"/>
</svg>
