<?xml version="1.0" encoding="utf-8"?>
<!-- Generator: Adobe Illustrator 28.1.0, SVG Export Plug-In . SVG Version: 6.00 Build 0)  -->
<svg version="1.1" id="Layer_1" xmlns="http://www.w3.org/2000/svg" xmlns:xlink="http://www.w3.org/1999/xlink" x="0px" y="0px"
	 viewBox="0 0 83 299" style="enable-background:new 0 0 83 299;" xml:space="preserve">
<style type="text/css">
	.st0{fill:#E5C28A;}
	.st1{fill:#D9B883;}
	.st2{fill:#010101;}
	.st3{fill:#52A5DA;}
	.st4{fill:#82142E;stroke:#030303;stroke-width:1.4331;}
	.st5{fill:#D49C57;stroke:#0A2321;stroke-width:1.0737;}
	.st6{fill:#231F20;}
	.st7{fill:none;}
	.st8{fill:none;stroke:#E2C288;stroke-width:0.6605;stroke-miterlimit:10;}
	.st9{fill:url(#SVGID_1_);}
	.st10{fill:url(#SVGID_00000045589474793898385520000011886452821273243294_);}
	.st11{fill:#E2C288;}
	.st12{opacity:0.71;}
	.st13{fill:#030303;}
	.st14{fill:#21150D;}
	.st15{fill:#898588;}
	.st16{fill:#8C2B40;}
	.st17{fill:#461316;}
	.st18{fill:#6C1828;}
	.st19{fill:#641625;}
	.st20{fill:#771B30;}
	.st21{fill:#821E37;}
	.st22{fill:#5D1320;}
	.st23{fill:#3A383E;}
	.st24{fill:#4D361B;}
	.st25{fill:#EDD1A4;}
	.st26{fill:#624828;}
	.st27{fill:#86693D;}
	.st28{fill:#A08153;}
	.st29{fill:#987B4E;}
	.st30{fill:#756043;}
	.st31{fill:#B29468;}
	.st32{fill:#887459;}
	.st33{fill:#C3A574;}
	.st34{fill:#907245;}
	.st35{fill:#D4B783;}
	.st36{fill:#70552D;}
	.st37{fill:#A98A5D;}
	.st38{fill:#7E6034;}
	.st39{fill:#FFFFFF;}
	.st40{fill:#BFBABA;}
	.st41{fill:#231E1E;}
	.st42{fill:#7A6850;}
	.st43{fill:#545153;}
	.st44{fill:#574833;}
	.st45{fill:#353030;}
	.st46{fill:#D9D5D6;}
	.st47{fill:#BFA071;}
	.st48{fill:#777377;}
	.st49{fill:#D3BE9C;}
	.st50{fill:#66636B;}
	.st51{fill:#9A8064;}
	.st52{fill:#EDD197;}
	.st53{fill:#634B3D;}
	.st54{fill:#CAA277;}
	.st55{fill:#DEB37F;}
	.st56{fill:#FFE6AD;}
	.st57{fill:#FFDBA0;}
	.st58{fill:#7E5E45;}
	.st59{fill:#F2CD95;}
	.st60{fill:#FFFBD3;}
	.st61{fill:#FFFCE7;}
	.st62{fill:#B78F69;}
	.st63{fill:#FFEFBF;}
	.st64{fill:#9E7C5B;}
	.st65{fill:#E9C38F;}
	.st66{fill:url(#SVGID_00000003091283484413261420000013092855595333393573_);}
	.st67{fill:url(#SVGID_00000124869889386579150160000007769657786765703099_);}
	.st68{fill:url(#SVGID_00000021842400455326539460000005626885914343874495_);}
	.st69{fill:#D49C57;}
	.st70{fill:#686565;}
	.st71{fill:url(#SVGID_00000121966014508580585740000010119150243316416399_);}
	.st72{fill:url(#SVGID_00000172424801989536525240000017657731607663849097_);}
	.st73{fill:#755D3F;}
	.st74{clip-path:url(#SVGID_00000070806336747295016720000011630140092028923800_);}
	.st75{fill:url(#SVGID_00000083781766826693518530000003415115412770868870_);}
	.st76{fill:url(#SVGID_00000058588486631505792390000011060075545334385793_);}
	.st77{fill:url(#SVGID_00000080911822145056325960000004188810500400437938_);}
	.st78{fill:url(#SVGID_00000026135768662453286410000008499439908088918151_);}
	.st79{fill:url(#SVGID_00000078765953903638425770000009333174441813955243_);}
	.st80{fill:url(#SVGID_00000114057621519164286120000011212756885330696619_);}
	.st81{fill:#10A24A;}
	.st82{fill:#332F8F;}
	.st83{fill:url(#SVGID_00000066489616210269761670000004793512233992768690_);}
	.st84{fill:url(#SVGID_00000144340199446891095180000007323263579062993549_);}
	.st85{opacity:0.74;clip-path:url(#SVGID_00000168108317482259483740000016871018812824635289_);}
	.st86{fill:url(#SVGID_00000026857418893417328640000010157709722323975328_);}
	.st87{fill:url(#SVGID_00000042737376753045527040000009083085822591748240_);}
	.st88{clip-path:url(#SVGID_00000118385436493982096340000006722924525803881132_);}
	.st89{fill:url(#SVGID_00000087384511458742372260000003226964343223962502_);}
	.st90{fill:url(#SVGID_00000098912034131724438000000015333306873663257758_);}
	.st91{fill:url(#SVGID_00000139287413797388436030000007154568628496072069_);}
	.st92{fill:#7E6037;}
	.st93{fill:#8F7146;}
	.st94{fill:#625135;}
	.st95{fill:#282318;}
	.st96{fill:#A88044;}
	.st97{fill:#C99752;}
	.st98{fill:#F2DBBD;}
	.st99{fill:#B39265;}
	.st100{fill:#EBC47C;}
	.st101{fill:#F9F1D4;}
	.st102{fill:#F4D391;}
	.st103{fill:#F6E3AF;}
	.st104{opacity:9.000000e-02;}
	.st105{fill:url(#SVGID_00000110454435983510698950000005472515485406671241_);}
	.st106{fill:url(#SVGID_00000025444344749551626810000002143530328688965515_);}
	.st107{clip-path:url(#SVGID_00000159435173206714480950000013650395922603818160_);}
	.st108{fill:url(#SVGID_00000005959387705918321900000002098817830881559719_);}
	.st109{fill:url(#SVGID_00000046336587738159957410000013327913371993948551_);}
	.st110{fill:url(#SVGID_00000072972578744150361890000013987627658555711920_);}
</style>
<path class="st1" d="M69.1,84c-3.1,0-5.6,2.5-5.6,5.6v148.1v6l0,55.3h2l0-60.1v-1.2V91.6c0-3.1,2.5-5.6,5.6-5.6L83,86v-2L69.1,84z"
	/>
<path class="st2" d="M52.8,21.4c-14.5,0-26.4,11.5-26.4,25.6c0,14.1,11.8,25.6,26.4,25.6s26.4-11.5,26.4-25.6
	C79.1,32.9,67.3,21.4,52.8,21.4z"/>
<path class="st1" d="M62.2,235.9c0-1.4-8.2-7.3-8.3-8.2c-0.2-1.4,1.4-3.2,2.2-5.3l-0.1-0.2l0.1-0.2c0,0,0,0,0,0v0
	c-1.1-1.9-6.1-8.3-9.2-12.4v-18c1.9-1.6,5.3-4.6,5.3-5.8c0-1.1-3.3-4.2-5.3-5.8v-7.9c1.9-1.6,5.3-4.6,5.3-5.8c0-1.1-3.3-4.2-5.3-5.8
	v-27.9c3.1-4.1,8.1-10.5,9.2-12.4v0c0,0,0,0,0,0l-0.1-0.2l0.1-0.2c-0.7-2.1-2.4-3.9-2.2-5.3c0.1-0.8,8.3-6.7,8.3-8.2
	c0-1.4-8.2-7.3-8.3-8.2c-0.2-1.4,1.4-3.2,2.2-5.3l-0.1-0.2l0.1-0.2c0,0,0,0,0,0v0c-1.3-2.3-7.8-10.5-10.5-14.3
	c-2.7,3.8-9.2,12-10.5,14.3l0,0c0,0,0,0,0,0l0.1,0.2L34.9,93c0.7,2.1,2.4,3.9,2.2,5.3c-0.1,0.8-8.3,6.7-8.3,8.2
	c0,1.4,8.2,7.3,8.3,8.2c0.2,1.4-1.4,3.2-2.2,5.3l0.1,0.2l-0.1,0.2c0,0,0,0,0,0l0,0c1.2,2.1,6.8,9.2,9.8,13.2v26.6
	c-1.7,1.4-5.9,5.1-5.9,6.3c0,1.2,4.2,4.8,5.9,6.3v6.9c-1.7,1.4-5.9,5.1-5.9,6.3c0,1.2,4.2,4.8,5.9,6.3v16.7
	c-3,4.1-8.5,11.2-9.8,13.2l0,0c0,0,0,0,0,0l0.1,0.2l-0.1,0.2c0.7,2.1,2.4,3.9,2.2,5.3c-0.1,0.8-8.3,6.7-8.3,8.2
	c0,1.4,8.2,7.3,8.3,8.2c0.2,1.4-1.4,3.2-2.2,5.3l0.1,0.2l-0.1,0.2c0,0,0,0,0,0l0,0c1.2,2.1,6.8,9.2,9.8,13.2v22.9
	c-1.7,1.4-5.9,5.1-5.9,6.3c0,1.2,4.1,5.4,5.8,6.8v0h2.1v-0.5c1.9-1.6,5.3-5.2,5.3-6.3c0-1.1-3.3-4.2-5.3-5.8v-24.2
	c3.1-4.1,8.1-10.5,9.2-12.4v0c0,0,0,0,0,0l-0.1-0.2l0.1-0.2c-0.7-2.1-2.4-3.9-2.2-5.3C53.9,243.2,62.2,237.3,62.2,235.9z"/>
<g>
	<g>
		
			<ellipse transform="matrix(1 -2.296538e-03 2.296538e-03 1 -0.1076 0.1214)" class="st3" cx="52.8" cy="46.9" rx="23.4" ry="22.8"/>
	</g>
	<g>
		<g>
			<g>
				<g>
					<path class="st4" d="M64.9,33.8c-0.5,0.5-0.7,1.1-0.9,1.7c-0.1,0.6-0.2,2.1-0.2,8.4c0,0,0,15.4,0.1,15.8
						c0.2,0.7,0.5,1.3,0.9,1.9l-7.4,0c0.5-0.5,0.8-1.1,0.9-1.8c0.1-0.4,0.1,0,0.1-0.7l0-9.6c-0.5-0.3-0.9-0.5-1.4-0.7
						c-0.5-0.2-1-0.2-1.6-0.2c-0.7,0-1.8,0.2-3.5,0.6c-0.8,0.2-1.5,0.3-2.1,0.3c-0.5,0-1.2,0-1.8-0.1c-0.7-0.1-1.2-0.2-1.7-0.3
						l0,10.1c0,0.7,0,0.3,0.1,0.7c0.2,0.7,0.5,1.3,0.9,1.9l-7.4,0c0.5-0.5,0.8-1.1,0.9-1.8c0.1-0.4,0.1-15.8,0.1-15.8
						c0-6.4,0-7.9-0.1-8.3c-0.2-0.7-0.5-1.3-0.9-1.8l7.4,0c-0.5,0.5-0.7,1.1-0.9,1.6c-0.1,0.6-0.2,0.2-0.2,0.9l0,9.5
						c0.5,0.2,0.9,0.3,1.2,0.4c0.4,0.1,0.8,0.1,1.4,0.1c0.8,0,1.7-0.1,2.5-0.3c2-0.4,3.4-0.6,4-0.6c1.2,0,2.2,0.2,3,0.5l0-9.6
						c0-0.7,0-0.3-0.1-0.7c-0.2-0.7-0.5-1.3-0.9-1.8L64.9,33.8z"/>
				</g>
				<g>
					<path class="st5" d="M43.3,56.2c-2.2,0-4.5-0.9-6.1-2.6c-1.6-1.6-2.5-3.7-2.4-5.9c0-2.2,1-4.4,2.5-5.9c1.7-1.6,3.9-2.5,6.6-2.5
						c3.6,0,6,2.7,8.2,5.2l0.4,0.4c0.6,0.7,1.2,1.4,1.8,2.2c2.2,2.7,4.4,5.6,7.8,5.6c1.5,0,2.8-0.6,3.7-1.6c1-1.1,1.4-2.6,1.2-4.1
						l0,0c-0.5-2.4-2.6-4-5.2-4c-1,0-2,0.3-2.8,0.8l-0.2,0.1c-0.5,0.3-1,0.6-1.1,1l-0.3,1.2l-3.2-3.9l1.2-0.1c0.4,0,0.8-0.4,1.3-0.7
						c0.2-0.2,0.5-0.4,0.7-0.5c0.2-0.1,0.5-0.3,0.7-0.4c0.2-0.1,0.4-0.2,0.5-0.3l0,0l0,0c1.1-0.5,2.3-0.7,3.5-0.7
						c2.5,0,4.8,1,6.3,2.8c1.7,1.7,2.4,4.2,2,6.7c-0.4,2.7-2.1,5.1-4.5,6.4c-1.2,0.9-2.6,1-3.8,1l0,0c-0.2,0-0.4,0-0.6,0
						c-3.4-0.1-5.9-2.5-8-4.8l-0.8-0.8c-0.6-0.7-1.2-1.4-1.8-2.2c-2.2-2.7-4.4-5.6-7.8-5.6c-1.5,0-2.9,0.6-3.8,1.7
						c-1,1.1-1.4,2.6-1.3,4.1l0,0c0.6,2.6,3.1,4,5.3,4c1,0,2-0.3,2.8-0.8l0.2-0.1c0.5-0.3,1-0.6,1.1-1l0.3-1.2l3.1,3.8l-1.1,0.2
						c-0.4,0.1-0.6,0.1-1,0.4c-1.7,1.4-3.3,2.2-5,2.3C44,56.1,43.6,56.2,43.3,56.2z"/>
				</g>
			</g>
		</g>
	</g>
</g>
<path class="st0" d="M45.5,297c-3-2.5-4.5-4.2-5-4.9c0.4-0.6,1.8-2.2,5-4.9l0.3,0.3c3,2.5,4.3,4,4.6,4.6c-0.4,0.6-1.7,2.1-4.6,4.6
	L45.5,297z"/>
<path class="st0" d="M45.5,261.4c-1-1.3-2.1-2.8-3.3-4.4c-2-2.7-4.3-5.6-5.4-7.3l0.1-0.1l-0.2-0.3c0.2-0.5,0.5-1,0.8-1.5
	c0.7-1.3,1.4-2.5,1.2-3.9c-0.1-0.9-0.8-1.5-3.8-4c-1.3-1.1-3.5-3-4.4-3.9c0.8-1,3.1-2.9,4.4-3.9c2.9-2.5,3.6-3.1,3.8-4
	c0.2-1.3-0.5-2.6-1.2-3.9c-0.2-0.5-0.5-0.9-0.7-1.4l0.1-0.1l-0.1-0.3c1.1-1.6,3.4-4.7,5.5-7.4c1.2-1.6,2.3-3.1,3.3-4.4l0.1,0.1
	c1,1.3,2.1,2.8,3.2,4.3c2,2.7,4.3,5.6,5.4,7.2l-0.1,0.1l0.2,0.3c-0.2,0.5-0.5,1-0.8,1.5c-0.7,1.3-1.4,2.5-1.2,3.9
	c0.1,0.9,0.8,1.5,3.8,4c1.3,1.1,3.5,3,4.4,3.9c-0.8,1-3.1,2.9-4.4,3.9c-2.9,2.5-3.6,3.1-3.8,4c-0.2,1.3,0.5,2.6,1.2,3.9
	c0.2,0.5,0.5,0.9,0.7,1.4l-0.1,0.1l0.1,0.3c-1.1,1.6-3.4,4.6-5.5,7.4c-1.1,1.5-2.3,3-3.2,4.3L45.5,261.4z"/>
<path class="st0" d="M45.5,190.7c-3.1-2.7-4.5-4.2-5-4.9c0.4-0.6,1.8-2.2,5-4.9l0.3,0.3c3,2.5,4.3,4,4.6,4.6
	c-0.4,0.6-1.7,2.1-4.6,4.6L45.5,190.7z"/>
<path class="st0" d="M45.5,171.3c-3.1-2.7-4.5-4.2-5-4.9c0.4-0.6,1.8-2.2,5-4.9l0.3,0.3c3,2.5,4.3,4,4.6,4.6
	c-0.4,0.6-1.7,2.1-4.6,4.6L45.5,171.3z"/>
<path class="st0" d="M45.5,131.9c-1-1.3-2.1-2.8-3.3-4.4c-2-2.7-4.3-5.6-5.4-7.3l0.1-0.1l-0.2-0.3c0.2-0.5,0.5-1,0.8-1.5
	c0.7-1.3,1.4-2.5,1.2-3.9c-0.1-0.9-0.8-1.5-3.8-4c-1.3-1.1-3.5-3-4.4-3.9c0.8-1,3.1-2.9,4.4-3.9c2.9-2.5,3.6-3.1,3.8-4
	c0.2-1.3-0.5-2.6-1.2-3.9c-0.3-0.5-0.5-0.9-0.7-1.4l0.1-0.1l-0.1-0.3c1.1-1.6,3.4-4.6,5.5-7.4c1.2-1.6,2.4-3.1,3.3-4.4
	c1,1.3,2.1,2.8,3.3,4.4c2,2.7,4.3,5.6,5.4,7.3l-0.1,0.1l0.2,0.3c-0.2,0.5-0.5,1-0.8,1.5c-0.7,1.3-1.4,2.5-1.2,3.9
	c0.1,0.9,0.8,1.5,3.8,4c1.3,1.1,3.5,3,4.4,3.9c-0.8,1-3.1,2.9-4.4,3.9c-2.9,2.5-3.6,3.1-3.8,4c-0.2,1.3,0.5,2.6,1.2,3.9
	c0.2,0.5,0.5,0.9,0.7,1.4l-0.1,0.1l0.1,0.3c-1.1,1.6-3.4,4.7-5.5,7.4c-1.1,1.5-2.3,3-3.2,4.3L45.5,131.9z"/>
<g>
	<g>
		<path d="M46.8,108.8c-0.1,0.1-0.1,0.1-0.1,0.2c0,0,0.1,0.1,0.1,0.1c0.1,0,0.1-0.1,0.1-0.1C46.9,108.9,46.9,108.8,46.8,108.8z"/>
		<path d="M44.9,104.5c-0.1,0.2-0.1,0.3,0.1,0.4c0.2,0.1,0.4,0.1,0.6,0c0.1-0.1,0.1-0.2,0.1-0.4c-0.1,0.2-0.2,0.3-0.4,0.3
			C45.1,104.9,45,104.7,44.9,104.5z"/>
	</g>
</g>
<g>
	<path d="M37.1,101.4c0.6,0.1,1.1-0.1,1.6-0.3c0.6-0.3,1.1-0.6,1.5-1.1c0.4-0.4,0.6-0.4,1,0c0.1,0.1,0.2,0.3,0.3,0.4
		c0.1,0.2,0.3,0.2,0.4,0.2c0.4,0,0.6,0.2,0.8,0.5c0.2,0.4,0.4,0.7,0.7,0.9c0.2,0.1,0.4,0.2,0.6,0.1c0.2,0,0.3,0,0.5,0
		c0.1,0,0.1,0,0.1-0.1c0-0.3,0-0.5,0-0.8c0-0.2-0.1-0.2-0.2-0.2c-0.3-0.1-0.5-0.1-0.7-0.2c-0.1,0-0.2-0.1-0.2-0.2
		c-0.3-0.2-0.3-0.7,0-0.9c0.4-0.2,0.4-0.8,0.1-1.2c-0.3-0.3-0.6-0.4-1-0.5c-0.6,0-1.2,0.2-1.7,0.5c-0.6,0.4-1.2,0.9-1.8,1.3
		c-0.7,0.5-1.5,1-2.4,1.4c0,0-0.1,0-0.1,0.1c0,0,0,0,0,0.1C36.8,101.4,36.9,101.4,37.1,101.4z M53.7,101.1c-1-0.4-1.9-1-2.7-1.6
		c-0.5-0.4-1.1-0.8-1.6-1.1c-0.4-0.3-0.9-0.4-1.4-0.4c-0.4,0-0.8,0.2-1,0.6c-0.2,0.4-0.1,0.9,0.2,1.1c0.3,0.2,0.3,0.5,0.1,0.8
		c-0.3,0.3-0.6,0.4-1,0.5c-0.3,0-0.3,0-0.3,0.3c0,0.2,0,0.5,0,0.7c0,0.1,0,0.2,0.2,0.2c0.1,0,0.3,0,0.4,0c0.5,0,0.9-0.2,1.2-0.7
		c0.1-0.1,0.1-0.3,0.2-0.4c0.1-0.3,0.4-0.5,0.7-0.5c0.2,0,0.3-0.1,0.4-0.2c0.1-0.2,0.2-0.3,0.4-0.5c0.3-0.3,0.5-0.4,0.8-0.1
		c0.4,0.4,0.8,0.7,1.2,1c0.6,0.3,1.2,0.6,1.9,0.6c0.1,0,0.2,0,0.3,0c0,0,0.1,0,0.2-0.1C53.8,101.1,53.7,101.1,53.7,101.1z M46.3,107
		c0.3,0.4,0.4,0.8,0.1,1.2c-0.3,0.4-0.6,0.6-1,0.8c-0.5,0.3-1,0.5-1.5,1c-0.8,0.8-0.9,2.1,0.4,2.8c0,0,0.1,0,0.1,0
		c0.2-0.1,0.3-0.2,0.5-0.3c0.1-0.1,0.1-0.1,0-0.2c-0.1-0.1-0.2-0.2-0.3-0.3c-0.2-0.3-0.3-0.6-0.1-1c0.2-0.3,0.5-0.5,0.9-0.8
		c0.4-0.3,0.9-0.6,1.3-0.9c0.5-0.4,0.9-0.9,1-1.6c0.1-0.5,0-1-0.5-1.4c-0.1-0.1-0.2-0.1-0.3,0c-0.2,0.1-0.5,0.2-0.7,0.3
		c-0.1,0-0.1,0.1-0.2,0.1c0,0,0,0,0,0.1C46.1,106.9,46.3,106.9,46.3,107z M47.6,103.7c0,0.5-0.3,0.8-0.6,1c-0.5,0.3-1,0.5-1.5,0.6
		c-0.5,0.2-1.1,0.4-1.5,0.7c-0.4,0.3-0.7,0.6-0.8,1c-0.2,0.5-0.1,1.1,0.3,1.5c0.2,0.3,0.5,0.6,0.8,0.8c0.1,0,0.1,0,0.2,0
		c0.1-0.1,0.3-0.2,0.4-0.2c0.1-0.1,0.2-0.2,0-0.3c0-0.1-0.1-0.1-0.2-0.1c-0.7-0.6-0.7-1.3,0.1-1.9c0.4-0.2,0.8-0.4,1.1-0.6
		c0.3-0.2,0.7-0.3,1-0.5c0.4-0.2,0.7-0.6,0.9-1c0.2-0.5,0.1-1.1-0.2-1.4c-0.4-0.4-1-0.5-1.5-0.2c-0.1,0-0.2,0.1-0.2,0.2
		c0,0.1,0.1,0.2,0.2,0.2c0.2,0.1,0.4,0.2,0.6,0.2c0.4,0.1,0.6,0,0.7-0.4C47.6,103.4,47.6,103.5,47.6,103.7z M46.7,110.1
		c-0.2,0.1-0.4,0.3-0.6,0.4c-0.1,0.1-0.1,0.1,0,0.2c0,0,0,0,0.1,0.1c0.3,0.4,0.3,0.9-0.1,1.3c-0.2,0.2-0.4,0.3-0.6,0.4
		c-0.3,0.2-0.6,0.3-0.9,0.6c-0.8,0.6-0.8,1.6-0.1,2.2c0.2,0.2,0.2,0.2,0.5,0c0.3-0.2,0.3-0.2,0.1-0.4c-0.3-0.3-0.3-0.7,0-1
		c0.2-0.2,0.5-0.3,0.7-0.5c0.4-0.2,0.8-0.5,1-0.8c0.3-0.4,0.6-0.8,0.6-1.4c0-0.4-0.2-0.8-0.5-1.1C46.8,110.1,46.8,110.1,46.7,110.1
		C46.7,110.1,46.7,110.1,46.7,110.1z M45.6,105.1c0,0,0.1-0.1,0.1-0.2c0-0.9,0-1.7,0-2.6c0-0.8,0-1.6,0-2.3c0-0.2,0-0.2-0.2-0.2
		c-0.1,0-0.2,0-0.3,0c-0.1,0-0.2,0-0.2,0.1c0,0.4,0,0.8,0,1.2c0,1.3,0,2.6,0,3.9c0,0.1,0,0.1,0,0.2
		C45.3,105.3,45.5,105.2,45.6,105.1z M46,114.1c0.2,0.2,0.2,0.4,0,0.6c-0.1,0.1-0.3,0.3-0.5,0.4c-0.3,0.2-0.6,0.4-0.9,0.6
		c-0.4,0.4-0.6,1-0.4,1.4c0.2,0.4,0.5,0.6,0.8,0.7c0,0,0.1,0,0.1,0c0-0.1,0-0.2-0.1-0.3c-0.6-0.4-0.5-1,0-1.4
		c0.2-0.2,0.4-0.3,0.6-0.4c0.3-0.2,0.6-0.4,0.9-0.7c0.3-0.5,0.3-1,0-1.4c-0.1-0.1-0.1-0.1-0.2,0c-0.1,0.1-0.3,0.2-0.5,0.3
		C45.9,114,46,114,46,114.1z M43.9,103.7c0.3,0,0.5-0.1,0.8-0.3c0.1-0.1,0.1-0.2,0-0.3c-0.4-0.2-0.8-0.3-1.2-0.1
		c-0.7,0.4-0.8,1.1-0.4,1.7c0.3,0.4,0.6,0.7,1.1,0.9c0,0,0.1,0,0.1,0c0.2-0.1,0.3-0.1,0.5-0.2c0.1-0.1,0.1-0.2,0-0.3
		c-0.2-0.1-0.4-0.2-0.6-0.3c-0.3-0.2-0.6-0.4-0.8-0.8c-0.1-0.2-0.1-0.4-0.1-0.6c0-0.1,0.1-0.2,0.1-0.3c0,0,0,0,0,0
		C43.3,103.6,43.5,103.8,43.9,103.7z M44.4,102.6c-0.4,0-0.8,0.1-1.1-0.1c-0.3-0.1-0.6-0.4-0.8-0.7c-0.1-0.1-0.2-0.1-0.3,0
		c-0.1,0.1-0.3,0.3-0.4,0.4c-0.1,0.1-0.1,0.2,0,0.3c0.2,0.4,0.5,0.6,0.8,0.8c0,0,0.1,0,0.1,0c0.5-0.5,1.1-0.6,1.7-0.4c0,0,0,0,0,0
		c0,0,0,0,0,0C44.7,102.6,44.6,102.6,44.4,102.6z M46,98.8c0-0.4-0.3-0.7-0.8-0.7c-0.4,0-0.7,0.4-0.7,0.8c0,0.4,0.3,0.7,0.8,0.7
		C45.7,99.5,46,99.2,46,98.8z M40.1,101.2c0.2-0.2,0.5-0.4,0.7-0.6c0.1-0.1,0.1-0.1,0-0.3c0,0,0,0-0.1,0c-0.2-0.2-0.3-0.2-0.5,0
		c-0.6,0.5-1.2,0.9-1.8,1.3c0,0-0.1,0.1-0.1,0.1c0,0,0.1,0.1,0.1,0.1c0.1,0,0.2,0,0.2,0C39.3,101.8,39.7,101.5,40.1,101.2z
		 M52.1,101.4c-0.6-0.3-1.2-0.7-1.7-1.1c0,0-0.1-0.1-0.1-0.1c-0.2-0.2-0.4-0.1-0.6,0.1c0,0,0,0.1,0,0.1c0.5,0.5,1.1,1,1.8,1.2
		c0.2,0.1,0.4,0,0.7,0c0.1,0,0.1,0,0.2-0.1c0,0,0,0,0-0.1C52.2,101.5,52.2,101.4,52.1,101.4z M46.2,102.8c0.6-0.2,1.1-0.1,1.5,0.2
		c0.1,0.1,0.2,0.1,0.3,0c0.3-0.2,0.5-0.4,0.7-0.6c0.1-0.1,0.1-0.2,0-0.3c-0.1-0.1-0.2-0.2-0.4-0.3c-0.1-0.1-0.2-0.1-0.2,0
		c-0.2,0.3-0.5,0.5-0.8,0.7c-0.3,0.1-0.6,0.1-0.9,0.1c-0.1,0-0.1,0-0.2,0c-0.2,0-0.3,0-0.2,0.3C46.1,102.8,46.1,102.8,46.2,102.8z
		 M41.3,100.8c-0.2-0.1-0.2-0.1-0.3,0c-0.4,0.4-0.8,0.7-1.3,1.1c-0.1,0.1-0.1,0.1-0.2,0.2c0.1,0,0.2,0.1,0.2,0.1
		c0.3,0,0.5,0,0.7-0.2c0.4-0.2,0.7-0.6,1-0.9c0,0,0-0.1,0.1-0.1C41.5,100.9,41.4,100.9,41.3,100.8z M51,101.8
		c-0.5-0.3-1-0.7-1.4-1.1c-0.2-0.2-0.2-0.2-0.4,0c-0.2,0.2-0.2,0.2,0,0.4c0.3,0.3,0.6,0.5,0.9,0.8c0.2,0.2,0.5,0.2,0.7,0.2
		c0.1,0,0.2-0.1,0.3-0.1c0,0,0,0,0-0.1C51.1,101.9,51,101.8,51,101.8z M46,116.3c0.4,0.3,0.3,0.8,0,1.1c-0.1,0.1-0.2,0.1-0.2,0.2
		c-0.1,0.1-0.1,0.1-0.1,0.2c0,0,0.1,0,0.2,0c0.5-0.2,0.8-0.5,0.9-1c0-0.3-0.1-0.6-0.3-0.9c-0.1-0.1-0.1-0.1-0.2,0
		c-0.1,0.1-0.2,0.2-0.4,0.2C45.9,116.2,45.9,116.3,46,116.3z M49.7,102.2c0.1,0,0.1-0.1,0.1-0.1c0,0-0.1-0.1-0.1-0.1
		c-0.3-0.3-0.6-0.6-0.9-0.9c-0.1-0.1-0.2-0.1-0.3-0.1c-0.4,0.2-0.4,0.2-0.1,0.5c0.2,0.2,0.4,0.4,0.6,0.5c0.1,0.1,0.3,0.1,0.5,0.2
		c0,0,0,0,0,0C49.7,102.2,49.7,102.3,49.7,102.2z M41.4,102.2c0.3-0.3,0.6-0.5,0.8-0.8c0,0,0-0.1,0-0.1c-0.1-0.1-0.2-0.1-0.3-0.1
		c-0.1,0-0.1,0-0.2,0.1c-0.3,0.3-0.6,0.6-0.9,0.9c0,0-0.1,0.1-0.1,0.1c0.1,0.1,0.2,0.1,0.2,0.1C41.1,102.3,41.3,102.3,41.4,102.2z
		 M45.6,108.5c0-0.4,0-0.9,0-1.3c0-0.1,0-0.2-0.1-0.2c-0.1,0-0.3,0.1-0.3,0.3c0,0.4,0,0.8,0,1.2c0,0.2,0,0.4,0,0.5
		C45.6,108.8,45.6,108.8,45.6,108.5z M45.2,111.2c0,0.3,0,0.6,0,1c0,0.1,0,0.1,0,0.2c0.2,0,0.3-0.1,0.3-0.3c0-0.3,0-0.6,0-0.9
		c0-0.1,0-0.1,0-0.2C45.3,110.9,45.2,111,45.2,111.2z M45.5,119.1c0-0.9,0-1.8,0-2.7c0,0,0-0.1-0.1-0.1c0,0-0.1,0.1-0.1,0.1
		c0,0.4,0,0.9,0,1.3c0,0.4,0,0.8,0,1.3c0,0.1,0,0.1,0,0.2c0,0,0,0,0.1,0C45.5,119.2,45.5,119.2,45.5,119.1z M45.7,117.5
		c0.2,0,0.4-0.3,0.4-0.5c0-0.2-0.2-0.4-0.4-0.4C45.7,116.8,45.7,117.2,45.7,117.5z M46,108.5c0.2-0.2,0.4-0.3,0.4-0.6
		c0,0,0-0.1,0-0.1c-0.1-0.2-0.2-0.3-0.4-0.4C46,107.7,46,108.1,46,108.5z M46.9,104.5C46.9,104.5,46.9,104.5,46.9,104.5
		c-0.1,0-0.1-0.1-0.2-0.1c-0.2,0-0.4,0.1-0.7,0.1c0,0-0.1,0.1-0.1,0.1c0,0.1,0,0.2,0,0.3C46.4,104.9,46.7,104.7,46.9,104.5z
		 M44.8,107.4c-0.2,0.1-0.3,0.2-0.4,0.4c-0.1,0.2,0.1,0.5,0.4,0.6C44.8,108.1,44.8,107.8,44.8,107.4z M45.2,116.5
		c-0.2,0.1-0.3,0.2-0.3,0.4c0,0.2,0.1,0.4,0.3,0.5C45.2,117.1,45.2,116.8,45.2,116.5z M44.6,105c0.1-0.2,0.1-0.3-0.2-0.4
		c-0.2,0-0.3-0.1-0.5-0.1c-0.1,0-0.1,0-0.2,0C43.9,104.7,44.4,104.9,44.6,105z M45.5,114.2c0,0-0.1-0.1-0.1-0.1c0,0-0.1,0.1-0.1,0.1
		c0,0.1,0,0.3,0,0.4c0,0.1,0,0.2,0,0.2c0,0,0,0.1,0.1,0.1c0,0,0.1-0.1,0.1-0.1c0-0.1,0-0.2,0-0.3c0,0,0,0,0,0
		C45.5,114.4,45.5,114.3,45.5,114.2z M46,104.2C46,104.3,46.1,104.3,46,104.2c0.3,0,0.4,0,0.6,0c0,0,0,0,0-0.1
		c-0.2-0.1-0.4-0.2-0.6-0.3C46,104,46,104.1,46,104.2z M44.1,104.2C44.1,104.2,44.1,104.2,44.1,104.2c0.2,0.1,0.3,0.2,0.5,0.2
		c0,0,0.1-0.1,0.1-0.1c0-0.1,0-0.2,0-0.4C44.5,104,44.3,104.1,44.1,104.2z M45.9,111.9c0.1-0.1,0.2-0.2,0.2-0.3
		c0-0.2-0.1-0.2-0.2-0.3C45.9,111.5,45.9,111.7,45.9,111.9z M44.9,112c0-0.2,0-0.4,0-0.6C44.6,111.6,44.6,111.8,44.9,112z
		 M45.9,114.5c0-0.1-0.1-0.1-0.1-0.2c0,0,0,0-0.1,0c0,0.1,0,0.3,0,0.4c0,0,0,0,0,0C45.8,114.7,45.9,114.6,45.9,114.5z M45.1,114.4
		c-0.2,0.1-0.2,0.2,0,0.4C45.1,114.7,45.1,114.5,45.1,114.4z"/>
</g>
<g>
	<path class="st6" d="M40.3,232.4c0.2,0.1,0.3,0.2,0.2,0.4c-0.1,0.9,0.1,1.7,0.5,2.4c0.2,0.5,0.6,0.9,0.9,1.3
		c0.4,0.4,0.8,0.8,1.2,1.3c0.6,0.6,1.1,1.4,1.5,2.2c0.1,0.2,0.1,0.4,0.1,0.6c0,2,0,3.9,0,5.9c0,0,0,0.1,0,0.1c0,0,0,0,0,0
		c0,0,0,0-0.1,0l0,0l0,0c0,0-0.1,0.1-0.1,0l0,0c0,0.1,0,0.1-0.1,0c0,0-0.1,0-0.1,0c0,0,0,0-0.1,0h0c0,0-0.1,0.1-0.1,0.1
		c-0.2,0.2-0.4,0.4-0.6,0.7l0,0l0,0c0,0,0,0.1-0.1,0.1c-0.3,0.7-0.2,1.3,0.2,1.9c0.6,0.8,1.6,1.1,2.5,0.7c0.9-0.4,1.4-1.4,1.2-2.3
		c0-0.1-0.1-0.3-0.2-0.4c-0.1-0.1-0.1-0.3-0.2-0.4c-0.2-0.3-0.5-0.5-0.9-0.7c0-0.1-0.1-0.1-0.1-0.2c0-0.6-0.1-1.3,0-1.9
		c0.1-0.5,0.3-1,0.5-1.4c0.4-0.9,1.1-1.6,1.7-2.3c0.7-0.8,1.3-1.6,1.6-2.6c0.2-0.7,0.3-1.3,0.2-2c0-0.1,0-0.2,0.1-0.2
		c0.2-0.2,0.4-0.3,0.5-0.5c0.4-0.6,0.5-1.1,0.3-1.8c0-0.1,0-0.1-0.1-0.1c-0.1-0.1-0.1-0.2-0.2-0.2c0,0,0,0,0,0l0,0c0,0-0.1,0-0.1,0
		c0,0,0,0,0,0c-0.1-0.1-0.2-0.2-0.4-0.2c0.1,0.1,0.2,0.2,0.4,0.2c0,0,0,0,0,0c0,0,0,0,0,0c0,0,0.1,0,0.1,0c0-0.1,0-0.1,0-0.1
		c-0.3-0.3-0.6-0.5-1-0.5c0,0,0,0-0.1,0c-0.2-0.1-0.4,0-0.6,0c-0.4,0.1-0.8,0.4-1,0.7c0,0.1-0.1,0.1-0.1,0.2c0,0,0,0,0,0
		c-0.1,0.2-0.1,0.4-0.1,0.6c0-0.2,0.1-0.4,0.1-0.6c-0.2,0.1-0.2,0.3-0.2,0.4c-0.2,0.9,0.4,1.8,1.1,2.1c0.2,0.1,0.3,0.2,0.2,0.4
		c0,0.3,0,0.5-0.1,0.8c-0.1,0.6-0.4,1-0.7,1.5c-0.3,0.4-0.6,0.8-1,1.1c0,0-0.1,0.1-0.1,0.2c-0.2,0-0.3,0.2-0.4,0.4
		c-0.2,0.1-0.3,0.3-0.5,0.4c-0.1,0-0.1-0.1-0.1-0.2c0-0.3,0-0.5,0-0.8c0-4.2,0-8.5,0-12.7c0-0.3,0-0.3,0.3-0.3c0.2,0,0.4,0,0.6,0
		c0.2-0.1,0.4-0.3,0.4-0.5c0,0,0,0,0-0.1c0,0,0,0,0,0c0.1,0,0.1,0,0.1-0.1c0.1-0.2,0.1-0.4,0-0.6c0,0,0,0,0-0.1c0,0,0,0,0,0
		c-0.1-0.1-0.2-0.1-0.3-0.2c0,0-0.1,0-0.1,0c0,0-0.1,0-0.1-0.1c0,0-0.1,0-0.1,0c-0.1,0-0.2,0-0.4,0c-0.2-0.1-0.1-0.2,0-0.3
		c0,0,0,0,0,0h0c0.1,0,0.1-0.1,0-0.1c0,0,0,0,0,0c0.1-0.1,0.1-0.2,0-0.2c0,0,0,0,0,0c0-0.1-0.1-0.2-0.2-0.2l0,0
		c-0.1-0.1-0.2-0.1-0.3-0.1l0,0c0-0.1,0-0.2-0.1-0.3c0-0.1,0-0.2-0.1-0.2c-0.1-0.1-0.1-0.2-0.2-0.2c-0.2,0-0.4-0.1-0.6-0.1
		c-0.1,0-0.2,0.1-0.3,0.2c-0.2,0.1-0.2,0.3-0.2,0.5c0,0.2,0,0.2-0.2,0.3c-0.4,0.1-0.5,0.5-0.2,0.8c0.1,0.1,0.2,0.1,0.1,0.2
		c0,0.1-0.2,0-0.2,0.1c-0.1,0-0.1,0-0.2,0c0,0-0.1,0-0.1,0c-0.1,0-0.2,0.1-0.3,0.1c0,0,0,0.1-0.1,0.1c0,0,0,0,0,0
		c-0.1,0.1-0.2,0.2-0.2,0.4c0,0,0,0.1,0,0.1c-0.1,0.1-0.1,0.1,0,0.1c0,0,0,0,0,0.1c0,0,0,0,0,0c0,0,0,0,0,0c0,0,0,0.1,0,0.1
		c0.1,0,0.1,0.1,0.1,0.2c0,0,0,0,0,0c0,0,0,0.1,0,0.1c0,0.1,0.1,0.2,0.2,0.2c0.3,0,0.5,0.1,0.8,0c0.2,0,0.2,0.1,0.3,0.2
		c0,0.2,0,0.4,0,0.6c0.1,0,0.1,0.1,0,0.1c0,0.1,0,0.2,0,0.3c0.1,0.2,0.1,0.4,0,0.5c0,0.1,0,0.2,0,0.3c-0.1,0.1,0,0.2,0,0.2
		c0.1,1.1,0,2.1,0,3.2c0,1.3,0,2.5,0,3.8c0,0.2,0,0.3,0,0.5c0,0.1-0.1,0.2-0.2,0.1c-0.1,0-0.1-0.1-0.2,0c0,0,0,0-0.1,0
		c0,0,0-0.1,0-0.1c0-0.1-0.1-0.1-0.2-0.2c0,0-0.1-0.1-0.1-0.1c0-0.1-0.1-0.1-0.2-0.2l0,0c-0.2-0.3-0.5-0.5-0.7-0.7
		c-0.1-0.1-0.2-0.2-0.3-0.3c-0.1,0-0.1-0.1-0.2-0.1c0,0,0,0-0.1,0c0,0,0,0,0-0.1c0-0.1,0-0.2-0.1-0.2c0,0,0,0,0,0c0,0,0,0.1,0,0.1
		l0,0c0,0,0-0.1,0-0.1c0,0,0,0,0,0c0-0.2-0.1-0.3-0.2-0.5c-0.3-0.5-0.4-1.1-0.5-1.6c0-0.1,0.1-0.2,0.2-0.2c0.6-0.2,0.9-0.6,1-1.2
		c0.1-0.4,0.1-0.9-0.1-1.2c-0.3-0.5-0.6-0.8-1.2-0.9c0,0,0,0-0.1,0c-0.1-0.1-0.1-0.1-0.2-0.1c-0.7-0.1-1.5,0.5-1.8,1.2
		C39.1,231.1,39.6,232.1,40.3,232.4z"/>
</g>
<ellipse class="st1" cx="64.5" cy="85" rx="5.6" ry="5.7"/>
<ellipse class="st0" cx="64.5" cy="85" rx="3.2" ry="3.1"/>
<path class="st7" d="M52.8,72.7c14.5,0,26.4-11.5,26.4-25.6c0-14.1-11.8-25.6-26.4-25.6S26.4,32.9,26.4,47.1
	C26.4,61.2,38.3,72.7,52.8,72.7z"/>
<path class="st7" d="M81.8,47.1c0,2-0.2,3.9-0.6,5.7H83V21.6H65.2C75,26.1,81.8,35.8,81.8,47.1z"/>
<path class="st1" d="M81.2,52.8c-0.2,1-0.5,1.9-0.8,2.9H83v-2.9H81.2z"/>
<path class="st1" d="M83,18.9c-13.9,0-25.4,0-28.6,0c-0.5,0-1.1-0.1-1.6-0.1c-16,0-29,12.7-29,28.3c0,3.2,0.6,6.3,1.6,9.2l0,242.8
	h2.7l0-237.3c5.1,8.1,14.3,13.6,24.7,13.6c12.9,0,23.8-8.3,27.6-19.7h0c0.3-0.9,0.6-1.9,0.8-2.9h0c0.4-1.9,0.6-3.8,0.6-5.7
	c0-11.2-6.8-20.9-16.5-25.5H83V18.9z M80.5,47.1c0,14.9-12.4,27-27.7,27c-15.3,0-27.7-12.1-27.7-27c0-14.9,12.4-27,27.7-27
	C68.1,20.1,80.5,32.2,80.5,47.1z"/>
<path class="st0" d="M52.8,20.1c-15.3,0-27.7,12.1-27.7,27c0,14.9,12.4,27,27.7,27c15.3,0,27.7-12.1,27.7-27
	C80.4,32.2,68,20.1,52.8,20.1z M52.8,72.7c-14.5,0-26.4-11.5-26.4-25.6c0-14.1,11.8-25.6,26.4-25.6s26.4,11.5,26.4,25.6
	C79.1,61.2,67.3,72.7,52.8,72.7z"/>
<path class="st1" d="M12.7,0C5.7,0,0,4.9,0,11.7L0,299h11.3l0-287.3c0-0.7,0.6-1.3,1.4-1.3H83V0H12.7z"/>
</svg>
