<?xml version="1.0" encoding="utf-8"?>
<!-- Generator: Adobe Illustrator 28.1.0, SVG Export Plug-In . SVG Version: 6.00 Build 0)  -->
<svg version="1.1" id="Layer_1" xmlns="http://www.w3.org/2000/svg" xmlns:xlink="http://www.w3.org/1999/xlink" x="0px" y="0px"
	 viewBox="0 0 5 86" style="enable-background:new 0 0 5 86;" xml:space="preserve">
<style type="text/css">
	.st0{fill:#E5C28A;}
	.st1{fill:#D9B883;}
	.st2{fill:#010101;}
	.st3{fill:#52A5DA;}
	.st4{fill:#82142E;stroke:#030303;stroke-width:1.4331;}
	.st5{fill:#D49C57;stroke:#0A2321;stroke-width:1.0737;}
	.st6{fill:#231F20;}
	.st7{fill:none;}
	.st8{fill:none;stroke:#E2C288;stroke-width:0.6605;stroke-miterlimit:10;}
	.st9{fill:url(#SVGID_1_);}
	.st10{fill:url(#SVGID_00000050647382409860464590000004151459381702422941_);}
	.st11{fill:#E2C288;}
	.st12{opacity:0.71;}
	.st13{fill:#030303;}
	.st14{fill:#21150D;}
	.st15{fill:#898588;}
	.st16{fill:#8C2B40;}
	.st17{fill:#461316;}
	.st18{fill:#6C1828;}
	.st19{fill:#641625;}
	.st20{fill:#771B30;}
	.st21{fill:#821E37;}
	.st22{fill:#5D1320;}
	.st23{fill:#3A383E;}
	.st24{fill:#4D361B;}
	.st25{fill:#EDD1A4;}
	.st26{fill:#624828;}
	.st27{fill:#86693D;}
	.st28{fill:#A08153;}
	.st29{fill:#987B4E;}
	.st30{fill:#756043;}
	.st31{fill:#B29468;}
	.st32{fill:#887459;}
	.st33{fill:#C3A574;}
	.st34{fill:#907245;}
	.st35{fill:#D4B783;}
	.st36{fill:#70552D;}
	.st37{fill:#A98A5D;}
	.st38{fill:#7E6034;}
	.st39{fill:#FFFFFF;}
	.st40{fill:#BFBABA;}
	.st41{fill:#231E1E;}
	.st42{fill:#7A6850;}
	.st43{fill:#545153;}
	.st44{fill:#574833;}
	.st45{fill:#353030;}
	.st46{fill:#D9D5D6;}
	.st47{fill:#BFA071;}
	.st48{fill:#777377;}
	.st49{fill:#D3BE9C;}
	.st50{fill:#66636B;}
	.st51{fill:#9A8064;}
	.st52{fill:#EDD197;}
	.st53{fill:#634B3D;}
	.st54{fill:#CAA277;}
	.st55{fill:#DEB37F;}
	.st56{fill:#FFE6AD;}
	.st57{fill:#FFDBA0;}
	.st58{fill:#7E5E45;}
	.st59{fill:#F2CD95;}
	.st60{fill:#FFFBD3;}
	.st61{fill:#FFFCE7;}
	.st62{fill:#B78F69;}
	.st63{fill:#FFEFBF;}
	.st64{fill:#9E7C5B;}
	.st65{fill:#E9C38F;}
	.st66{fill:url(#SVGID_00000112607110164645271130000016048452913151949235_);}
	.st67{fill:url(#SVGID_00000127739977127038392260000001748671677542078133_);}
	.st68{fill:url(#SVGID_00000154408719582166380600000004429727666213360808_);}
	.st69{fill:#D49C57;}
	.st70{fill:#686565;}
	.st71{fill:url(#SVGID_00000152976174212901515960000014357445093340177283_);}
	.st72{fill:url(#SVGID_00000008112066115953032370000013086115443745715616_);}
	.st73{fill:#755D3F;}
	.st74{clip-path:url(#SVGID_00000098190775574148234150000014055363043359137933_);}
	.st75{fill:url(#SVGID_00000164483731128366042480000014957222683263068578_);}
	.st76{fill:url(#SVGID_00000079464027447177228010000013386064579849537687_);}
	.st77{fill:url(#SVGID_00000111880786028130698930000016058003989624134583_);}
	.st78{fill:url(#SVGID_00000067958994694100791340000004768251249666711972_);}
	.st79{fill:url(#SVGID_00000019653576940014763890000006365982730579721397_);}
	.st80{fill:url(#SVGID_00000063619165925074008570000018055946369046076291_);}
	.st81{fill:#10A24A;}
	.st82{fill:#332F8F;}
	.st83{fill:url(#SVGID_00000003105999938314457140000005262989349474103226_);}
	.st84{fill:url(#SVGID_00000000216561171589746760000002506792387607624862_);}
	.st85{opacity:0.74;clip-path:url(#SVGID_00000062179817209952493890000001497077008895102113_);}
	.st86{fill:url(#SVGID_00000062165838372811794350000011383635651327914658_);}
	.st87{fill:url(#SVGID_00000070098106256550201660000003082257108303711412_);}
	.st88{clip-path:url(#SVGID_00000179636279258630129040000004115510515521541796_);}
	.st89{fill:url(#SVGID_00000150067470543938073550000015500799667440153533_);}
	.st90{fill:url(#SVGID_00000066505439545285063530000015821185898707190445_);}
	.st91{fill:url(#SVGID_00000085940690444400856640000013421982780134330000_);}
	.st92{fill:#7E6037;}
	.st93{fill:#8F7146;}
	.st94{fill:#625135;}
	.st95{fill:#282318;}
	.st96{fill:#A88044;}
	.st97{fill:#C99752;}
	.st98{fill:#F2DBBD;}
	.st99{fill:#B39265;}
	.st100{fill:#EBC47C;}
	.st101{fill:#F9F1D4;}
	.st102{fill:#F4D391;}
	.st103{fill:#F6E3AF;}
	.st104{opacity:9.000000e-02;}
	.st105{fill:url(#SVGID_00000170278756279417865290000009088693545540672406_);}
	.st106{fill:url(#SVGID_00000009547698022646575080000000703769974594563774_);}
	.st107{clip-path:url(#SVGID_00000072998506020813942790000009498185581679024010_);}
	.st108{fill:url(#SVGID_00000047764100633923568720000003199539872728354734_);}
	.st109{fill:url(#SVGID_00000062193287335376005720000003126950289583462065_);}
	.st110{fill:url(#SVGID_00000142881844375803298390000012073501301176402352_);}
</style>
<g>
	<polygon class="st1" points="257,75.6 5,75.6 5,86 257,86 	"/>
	<path class="st7" d="M10.8,64.4c0-0.8-1.4-2.1,1.3-3.6c0.9-0.7,2.4-1.5,4.7-2.3c4.7-1.6,8-1.1,11.3-2.2c0.4-0.1,1.5-0.5,2.5-1.1
		c0.1-0.1,0.2-0.2,0.3-0.3c0,0,0.8-1.3,2-1.5c0.4-0.4,1.1-1.1,2-1.1c0.9,0,1.6,0.4,2.1,1c0,0,0.1,0,0.1,0c0.5,1.5,1.9,2.6,3.5,2.6
		c1.6,0,3.8-1.1,5.8-2.4c1.5-0.9,2.8-1.9,3.8-2.7c0,0,0-0.1,0-0.1c3.6-2.1,7.3-1,8.3-0.9c1.4,0.2,2.5,0.9,3.4,2
		c1.8,2.2,4.2,3.6,8,3.6c3.8,0,9.6-4,9.6-10.5s-4.3-9.9-9.6-9.9c-2.9,0-5.7,1.4-7.6,3.7c0,0-1.8,2.3-1.7,3.7c-0.1,0.3-1.5,6-7.1,3.8
		c-0.6-0.2-1.1-0.6-1.8-1.1c-1.1-0.7-1.5-2.5-1.1-4.3c0.6-2.9,2.5-5.7,5-7.9H5v31.2H10.8z"/>
	<path class="st1" d="M56,33.2c1.2-1.1,2.6-2.1,4-2.9H5v2.9H56z"/>
	<path class="st1" d="M95.3,0H5v2h1C8,3.4,7.1,2.6,8,5c0.5,1.3,4.8,3.4,10.1,3.4c4.9,0,7.5-1,11.6,0.4c1.7,0.6,4.1,3.8,5.2,4.8
		c0.2,0.2,0.3,0.2,0.3,0.2c0.9,0.7,3,0.6,5,0.4c-0.4,0.9-0.6,1.9-0.6,3c0,4.4,3.6,8,8,8c2.6,0,4.9-1.3,6.3-3.2
		c0.7,0.1,1.3,0.3,1.8,0.8c1.8,1.9,0.4,5,6.6,4.8c1.8-0.6,3.6-1.1,5.4-1.3c0.9-0.1,1.8-0.1,2.7-0.1c6.2,0,11.3,2.2,14.3,6.2
		c1.7,2.3,3,4.4,4,6.7c0-0.6-0.1-1.3-0.1-1.9c0-14.8,7.9-27.8,19.8-35.3c1.1-0.8,2.2-1.5,3.3-2.1C108.8-0.3,102.8-0.2,95.3,0z"/>
	<path class="st1" d="M70.2,27.5c-3.4,0-7,1.1-10.1,2.9c-1.5,0.8-2.8,1.8-4,2.9c-2.5,2.3-4.4,5-5,7.9c-0.4,1.9,0,3.6,1.1,4.3
		c0.7,0.4,1.2,0.8,1.8,1.1c5.6,2.2,6.9-3.5,7.1-3.8c-0.1-1.4,1.7-3.7,1.7-3.7c1.9-2.3,4.7-3.7,7.6-3.7c5.3,0,9.6,3.4,9.6,9.9
		S74,55.6,70.2,55.6s-6.3-1.4-8-3.6c-0.9-1.1-2-1.8-3.4-2c-0.9-0.1-4.7-1.2-8.3,0.9c0,0,0,0.1,0,0.1c-1,0.8-2.4,1.8-3.8,2.7
		c-2,1.3-4.2,2.4-5.8,2.4c-1.6,0-3-1.1-3.5-2.6c0,0-0.1,0-0.1,0c-0.5-0.6-1.2-1-2.1-1c-0.9,0-1.6,0.6-2,1.1c-1.2,0.3-2,1.5-2,1.5
		c-0.1,0.1-0.2,0.2-0.3,0.3c-1.1,0.5-2.1,0.9-2.5,1.1c-3.3,1.1-6.6,0.7-11.3,2.2c-2.4,0.8-3.8,1.6-4.7,2.3c-2.7,1.5-1.3,2.9-1.3,3.6
		H5v2.7c25.3,0,55.9,0,61.1,0c2,0,4.2-0.2,6.4-0.7c2.2-0.3,4.2-1,6.1-2c5.1-2.7,8.8-7.5,10.1-13.3c0.1-0.3,0.1-0.6,0.2-0.8
		c0.2-1,0.3-2.1,0.3-3.2C89.1,36.2,80.9,27.5,70.2,27.5z M87.1,50c0,0.2-0.2,0.8-0.2,0.8c-1.1,5.2-4.4,9.6-9.1,12.1
		c-1.7,0.9-3.6,1.5-5.7,1.8c-2.1,0.5-4.1,0.7-6,0.7H13.3l-1-1.8c-0.1-0.2-0.3-0.6,0.7-1.1l0.1-0.1l0.1-0.1c0.9-0.7,2.3-1.4,4.2-2
		c2.4-0.8,4.4-1,6.3-1.3c1.7-0.2,3.3-0.4,5-0.9c0.4-0.1,1.6-0.6,2.8-1.2l0.2-0.2l0.1-0.1c0.1-0.1,0.2-0.2,0.4-0.3l0.1-0.1l0.1-0.1
		c0.2-0.3,0.6-0.7,1-0.8l0.5-0.1l0.4-0.4c0.3-0.3,0.6-0.5,0.7-0.5c0.3,0,0.6,0.2,0.7,0.4l0.1,0.1c0.9,1.9,2.8,3.2,5,3.2
		c1.7,0,3.9-0.8,6.8-2.7c1.5-0.9,2.8-1.9,4-2.8l0.2-0.2c1.1-0.5,2.3-0.8,3.6-0.8c1.1,0,2,0.2,2.6,0.3c0.2,0,0.4,0.1,0.6,0.1
		c0.8,0.1,1.6,0.6,2.3,1.4c2.2,2.7,5.9,4.2,9.4,4.2c6.5,0,11.2-5.7,11.2-12.3s-4.1-11.8-11.2-11.8c-6,0-10.7,4.8-11,9.1
		c-0.6,1.9-1.6,2.9-2.9,2.9c-0.5,0-1.1-0.1-1.7-0.4c-0.3-0.1-0.7-0.4-1.2-0.7L53.1,44c-0.3-0.2-0.6-1.1-0.4-2.3
		c0.1-0.4,0.3-0.8,0.4-1.2c0.2-0.5,0.4-0.9,0.6-1.4c1.2-2.3,2.9-4.3,4.9-5.9c1.4-1.1,2.9-1.9,4.5-2.6c2.2-0.9,4.6-1.4,6.9-1.4
		c9.8,0,17.2,8,17.2,17.8C87.4,47.9,87.3,48.9,87.1,50z"/>
</g>
<g>
	<polygon class="st1" points="0,75.6 0,86 5,86 5,75.6 	"/>
	<rect y="30.3" class="st1" width="5" height="2.9"/>
	<rect class="st1" width="5" height="2"/>
	<path class="st1" d="M0,64.4v2.7c1.6,0,3.3,0,5,0v-2.7H0z"/>
</g>
</svg>
