<?xml version="1.0" encoding="utf-8"?>
<!-- Generator: Adobe Illustrator 28.1.0, SVG Export Plug-In . SVG Version: 6.00 Build 0)  -->
<svg version="1.1" id="Layer_1" xmlns="http://www.w3.org/2000/svg" xmlns:xlink="http://www.w3.org/1999/xlink" x="0px" y="0px"
	 viewBox="0 0 5 86" style="enable-background:new 0 0 5 86;" xml:space="preserve">
<style type="text/css">
	.st0{fill:#E5C28A;}
	.st1{fill:#D9B883;}
	.st2{fill:#010101;}
	.st3{fill:#52A5DA;}
	.st4{fill:#82142E;stroke:#030303;stroke-width:1.4331;}
	.st5{fill:#D49C57;stroke:#0A2321;stroke-width:1.0737;}
	.st6{fill:#231F20;}
	.st7{fill:none;}
	.st8{fill:none;stroke:#E2C288;stroke-width:0.6605;stroke-miterlimit:10;}
	.st9{fill:url(#SVGID_1_);}
	.st10{fill:url(#SVGID_00000029766001061982684960000006387698663469731462_);}
	.st11{fill:#E2C288;}
	.st12{opacity:0.71;}
	.st13{fill:#030303;}
	.st14{fill:#21150D;}
	.st15{fill:#898588;}
	.st16{fill:#8C2B40;}
	.st17{fill:#461316;}
	.st18{fill:#6C1828;}
	.st19{fill:#641625;}
	.st20{fill:#771B30;}
	.st21{fill:#821E37;}
	.st22{fill:#5D1320;}
	.st23{fill:#3A383E;}
	.st24{fill:#4D361B;}
	.st25{fill:#EDD1A4;}
	.st26{fill:#624828;}
	.st27{fill:#86693D;}
	.st28{fill:#A08153;}
	.st29{fill:#987B4E;}
	.st30{fill:#756043;}
	.st31{fill:#B29468;}
	.st32{fill:#887459;}
	.st33{fill:#C3A574;}
	.st34{fill:#907245;}
	.st35{fill:#D4B783;}
	.st36{fill:#70552D;}
	.st37{fill:#A98A5D;}
	.st38{fill:#7E6034;}
	.st39{fill:#FFFFFF;}
	.st40{fill:#BFBABA;}
	.st41{fill:#231E1E;}
	.st42{fill:#7A6850;}
	.st43{fill:#545153;}
	.st44{fill:#574833;}
	.st45{fill:#353030;}
	.st46{fill:#D9D5D6;}
	.st47{fill:#BFA071;}
	.st48{fill:#777377;}
	.st49{fill:#D3BE9C;}
	.st50{fill:#66636B;}
	.st51{fill:#9A8064;}
	.st52{fill:#EDD197;}
	.st53{fill:#634B3D;}
	.st54{fill:#CAA277;}
	.st55{fill:#DEB37F;}
	.st56{fill:#FFE6AD;}
	.st57{fill:#FFDBA0;}
	.st58{fill:#7E5E45;}
	.st59{fill:#F2CD95;}
	.st60{fill:#FFFBD3;}
	.st61{fill:#FFFCE7;}
	.st62{fill:#B78F69;}
	.st63{fill:#FFEFBF;}
	.st64{fill:#9E7C5B;}
	.st65{fill:#E9C38F;}
	.st66{fill:url(#SVGID_00000093167708892218401660000004684527631645949312_);}
	.st67{fill:url(#SVGID_00000183946588686648173120000018362421755154484923_);}
	.st68{fill:url(#SVGID_00000029007620625368726210000003162606140193361598_);}
	.st69{fill:#D49C57;}
	.st70{fill:#686565;}
	.st71{fill:url(#SVGID_00000176005707880151600990000008765192413460314787_);}
	.st72{fill:url(#SVGID_00000064348872001377835020000017321513464208741780_);}
	.st73{fill:#755D3F;}
	.st74{clip-path:url(#SVGID_00000147915588619777432420000014236348422218549434_);}
	.st75{fill:url(#SVGID_00000075871025651969704410000015531972362555381182_);}
	.st76{fill:url(#SVGID_00000047027226732374055750000013689516046583245710_);}
	.st77{fill:url(#SVGID_00000013181589801001440030000015064156317831378865_);}
	.st78{fill:url(#SVGID_00000061441681778053366780000004347539346708595867_);}
	.st79{fill:url(#SVGID_00000020369888337038384340000008372503935283622565_);}
	.st80{fill:url(#SVGID_00000127005548846228350920000017382545448411399846_);}
	.st81{fill:#10A24A;}
	.st82{fill:#332F8F;}
	.st83{fill:url(#SVGID_00000057865266111420886670000011199194677799887520_);}
	.st84{fill:url(#SVGID_00000017510174994951289650000018406286460027300497_);}
	.st85{opacity:0.74;clip-path:url(#SVGID_00000052789414513098897430000008368189868803613060_);}
	.st86{fill:url(#SVGID_00000093159393926066163400000011085469939123143553_);}
	.st87{fill:url(#SVGID_00000005961700889924132120000003468075331918604453_);}
	.st88{clip-path:url(#SVGID_00000065779097333027422390000010971941685040959110_);}
	.st89{fill:url(#SVGID_00000064353069752943238570000001840341336209205912_);}
	.st90{fill:url(#SVGID_00000039825930257423236530000002667530782876604572_);}
	.st91{fill:url(#SVGID_00000019672071672763388760000018315952793943247010_);}
	.st92{fill:#7E6037;}
	.st93{fill:#8F7146;}
	.st94{fill:#625135;}
	.st95{fill:#282318;}
	.st96{fill:#A88044;}
	.st97{fill:#C99752;}
	.st98{fill:#F2DBBD;}
	.st99{fill:#B39265;}
	.st100{fill:#EBC47C;}
	.st101{fill:#F9F1D4;}
	.st102{fill:#F4D391;}
	.st103{fill:#F6E3AF;}
	.st104{opacity:9.000000e-02;}
	.st105{fill:url(#SVGID_00000092422861652754910890000004201126276420376192_);}
	.st106{fill:url(#SVGID_00000042738934292473766730000004161867897111048591_);}
	.st107{clip-path:url(#SVGID_00000111877513960142647750000003739643046426065549_);}
	.st108{fill:url(#SVGID_00000023280757255547876630000000222904954448238518_);}
	.st109{fill:url(#SVGID_00000116941603573315157310000007871741009895209894_);}
	.st110{fill:url(#SVGID_00000033365524215636602270000001217773748060228737_);}
</style>
<path class="st1" d="M24.4-3.6v-206.5v-2.9h-2v2.9h0V-5.6C22.5-2.5,20,0,16.9,0H0v2h18.8C21.9,2,24.4-0.5,24.4-3.6z"/>
<path class="st1" d="M6.8,33.2c0.2-1,0.5-1.9,0.8-2.9h-7.7v2.9H6.8z"/>
<path class="st1" d="M35.2,67.3c16,0,29-12.7,29-28.3c0-3.2-0.6-6.3-1.6-9.2l0-239.9h0v-2.9h-2.7v2.9h0l0,234.4
	c-5.1-8.1-14.3-13.6-24.7-13.6c-12.9,0-23.9,8.3-27.6,19.7h0.1v0H7.6c-0.3,0.9-0.6,1.9-0.8,2.9C6.4,35.1,6.2,37,6.2,39
	c0,11.2,6.8,20.9,16.5,25.5H0v2.7c13.9,0,30.4,0,33.6,0C34.1,67.2,34.7,67.3,35.2,67.3z M7.6,39c0-14.9,12.4-27,27.7-27
	c15.3,0,27.7,12.1,27.7,27c0,14.9-12.4,27-27.7,27C19.9,65.9,7.6,53.9,7.6,39z"/>
<path class="st1" d="M76.6-213v2.9h0V74.3c0,0.7-0.6,1.3-1.4,1.3H0V86h75.3c7,0,12.7-4.9,12.7-11.7v-284.4v-2.9H76.6z"/>
</svg>
