<?xml version="1.0" encoding="utf-8"?>
<!-- Generator: Adobe Illustrator 28.1.0, SVG Export Plug-In . SVG Version: 6.00 Build 0)  -->
<svg version="1.1" id="Layer_1" xmlns="http://www.w3.org/2000/svg" xmlns:xlink="http://www.w3.org/1999/xlink" x="0px" y="0px"
	 viewBox="0 0 83 299" style="enable-background:new 0 0 83 299;" xml:space="preserve">
<style type="text/css">
	.st0{fill:#E5C28A;}
	.st1{fill:#D9B883;}
	.st2{fill:#010101;}
	.st3{fill:#52A5DA;}
	.st4{fill:#82142E;stroke:#030303;stroke-width:1.4331;}
	.st5{fill:#D49C57;stroke:#0A2321;stroke-width:1.0737;}
	.st6{fill:#231F20;}
	.st7{fill:none;}
	.st8{fill:none;stroke:#E2C288;stroke-width:0.6605;stroke-miterlimit:10;}
	.st9{fill:url(#SVGID_1_);}
	.st10{fill:url(#SVGID_00000064343061793266046030000014449975044919500966_);}
	.st11{fill:#E2C288;}
	.st12{opacity:0.71;}
	.st13{fill:#030303;}
	.st14{fill:#21150D;}
	.st15{fill:#898588;}
	.st16{fill:#8C2B40;}
	.st17{fill:#461316;}
	.st18{fill:#6C1828;}
	.st19{fill:#641625;}
	.st20{fill:#771B30;}
	.st21{fill:#821E37;}
	.st22{fill:#5D1320;}
	.st23{fill:#3A383E;}
	.st24{fill:#4D361B;}
	.st25{fill:#EDD1A4;}
	.st26{fill:#624828;}
	.st27{fill:#86693D;}
	.st28{fill:#A08153;}
	.st29{fill:#987B4E;}
	.st30{fill:#756043;}
	.st31{fill:#B29468;}
	.st32{fill:#887459;}
	.st33{fill:#C3A574;}
	.st34{fill:#907245;}
	.st35{fill:#D4B783;}
	.st36{fill:#70552D;}
	.st37{fill:#A98A5D;}
	.st38{fill:#7E6034;}
	.st39{fill:#FFFFFF;}
	.st40{fill:#BFBABA;}
	.st41{fill:#231E1E;}
	.st42{fill:#7A6850;}
	.st43{fill:#545153;}
	.st44{fill:#574833;}
	.st45{fill:#353030;}
	.st46{fill:#D9D5D6;}
	.st47{fill:#BFA071;}
	.st48{fill:#777377;}
	.st49{fill:#D3BE9C;}
	.st50{fill:#66636B;}
	.st51{fill:#9A8064;}
	.st52{fill:#EDD197;}
	.st53{fill:#634B3D;}
	.st54{fill:#CAA277;}
	.st55{fill:#DEB37F;}
	.st56{fill:#FFE6AD;}
	.st57{fill:#FFDBA0;}
	.st58{fill:#7E5E45;}
	.st59{fill:#F2CD95;}
	.st60{fill:#FFFBD3;}
	.st61{fill:#FFFCE7;}
	.st62{fill:#B78F69;}
	.st63{fill:#FFEFBF;}
	.st64{fill:#9E7C5B;}
	.st65{fill:#E9C38F;}
	.st66{fill:url(#SVGID_00000044886960651401734670000011270091594069134246_);}
	.st67{fill:url(#SVGID_00000004526889288985413120000008514055746608814245_);}
	.st68{fill:url(#SVGID_00000102531239598276157810000004317905440950630055_);}
	.st69{fill:#D49C57;}
	.st70{fill:#686565;}
	.st71{fill:url(#SVGID_00000093163996808392664390000005938787063357594553_);}
	.st72{fill:url(#SVGID_00000014598542657485546560000015306582900150025092_);}
	.st73{fill:#755D3F;}
	.st74{clip-path:url(#SVGID_00000096043559310496135840000002763924763614492808_);}
	.st75{fill:url(#SVGID_00000011008576479979639140000001558190423897848749_);}
	.st76{fill:url(#SVGID_00000078020464877079696510000012095502284585422220_);}
	.st77{fill:url(#SVGID_00000003817641796543487940000013447958993230785469_);}
	.st78{fill:url(#SVGID_00000120553142273744308640000004158265441606395016_);}
	.st79{fill:url(#SVGID_00000101799019083357139550000005717570782135111076_);}
	.st80{fill:url(#SVGID_00000148656143214570906220000008436955306517918647_);}
	.st81{fill:#10A24A;}
	.st82{fill:#332F8F;}
	.st83{fill:url(#SVGID_00000025405162308949929860000013643355144500758206_);}
	.st84{fill:url(#SVGID_00000177471191891172827810000009273861793149845395_);}
	.st85{opacity:0.74;clip-path:url(#SVGID_00000070822823014000719950000002678989052085049262_);}
	.st86{fill:url(#SVGID_00000096057426656205922500000013024215392234516364_);}
	.st87{fill:url(#SVGID_00000150099428519410601520000004120008666719681723_);}
	.st88{clip-path:url(#SVGID_00000052816113421137034580000010472819693529196933_);}
	.st89{fill:url(#SVGID_00000054260934474255901320000002610553990443819184_);}
	.st90{fill:url(#SVGID_00000133524992721051933160000003855477557749654444_);}
	.st91{fill:url(#SVGID_00000165224688581812106990000011790807863998785715_);}
	.st92{fill:#7E6037;}
	.st93{fill:#8F7146;}
	.st94{fill:#625135;}
	.st95{fill:#282318;}
	.st96{fill:#A88044;}
	.st97{fill:#C99752;}
	.st98{fill:#F2DBBD;}
	.st99{fill:#B39265;}
	.st100{fill:#EBC47C;}
	.st101{fill:#F9F1D4;}
	.st102{fill:#F4D391;}
	.st103{fill:#F6E3AF;}
	.st104{opacity:9.000000e-02;}
	.st105{fill:url(#SVGID_00000171716419393344093410000006632565253688473255_);}
	.st106{fill:url(#SVGID_00000157283719322622754020000012408845264995001481_);}
	.st107{clip-path:url(#SVGID_00000115479727438893046750000001062251309711570605_);}
	.st108{fill:url(#SVGID_00000042015786112999873810000009232078392940960398_);}
	.st109{fill:url(#SVGID_00000128450246230073111270000013655462279955414206_);}
	.st110{fill:url(#SVGID_00000019675231103330811540000011770646951333450917_);}
</style>
<path class="st1" d="M11.9,86c3.1,0,5.6,2.5,5.6,5.6v124.5v22.8l0,60.1h2l0-55.3v-27.7V89.7c0-3.1-2.5-5.6-5.6-5.6H0v2H11.9z"/>
<path class="st1" d="M0,52.8v2.9h2.6c-0.3-0.9-0.6-1.9-0.8-2.9H0z"/>
<path class="st2" d="M30.2,72.7c14.5,0,26.4-11.5,26.4-25.6c0-14.1-11.8-25.6-26.4-25.6S3.8,32.9,3.8,47.1
	C3.8,61.2,15.7,72.7,30.2,72.7z"/>
<path class="st1" d="M37.8,298.5c1.9-1.6,5.3-5.2,5.3-6.3c0-1.1-3.3-4.2-5.3-5.8v-24.2c3.1-4.1,8.1-10.5,9.2-12.4v0c0,0,0,0,0,0
	l-0.1-0.2l0.1-0.2c-0.7-2.1-2.4-3.9-2.2-5.3c0.1-0.8,8.3-6.7,8.4-8.2c0-1.4-8.2-7.3-8.4-8.2c-0.2-1.4,1.4-3.2,2.2-5.3l-0.1-0.2
	l0.1-0.2c0,0,0,0,0,0v0c-1.1-1.9-6.1-8.3-9.2-12.4v-18c1.9-1.6,5.3-4.6,5.3-5.8c0-1.1-3.3-4.2-5.3-5.8v-7.9c1.9-1.6,5.3-4.6,5.3-5.8
	c0-1.1-3.3-4.2-5.3-5.8v-27.9c3.1-4.1,8.1-10.5,9.2-12.4v0c0,0,0,0,0,0l-0.1-0.2l0.1-0.2c-0.7-2.1-2.4-3.9-2.2-5.3
	c0.1-0.8,8.3-6.7,8.4-8.2c0-1.4-8.2-7.3-8.4-8.2c-0.2-1.4,1.4-3.2,2.2-5.3l-0.1-0.2l0.1-0.2c0,0,0,0,0,0v0
	c-1.3-2.3-7.8-10.5-10.5-14.3c-2.7,3.8-9.2,12-10.5,14.3l0,0c0,0,0,0,0,0l0.1,0.2L26,93c0.7,2.1,2.4,3.9,2.2,5.3
	c-0.1,0.8-8.3,6.7-8.4,8.2c0,1.4,8.2,7.3,8.4,8.2c0.2,1.4-1.4,3.2-2.2,5.3l0.1,0.2l-0.1,0.2c0,0,0,0,0,0l0,0
	c1.2,2.1,6.8,9.2,9.8,13.2v26.6c-1.7,1.4-5.9,5.1-5.9,6.3c0,1.2,4.2,4.8,5.9,6.3v6.9c-1.7,1.4-5.9,5.1-5.9,6.3
	c0,1.2,4.2,4.8,5.9,6.3v16.7c-3,4.1-8.5,11.2-9.8,13.2l0,0c0,0,0,0,0,0l0.1,0.2l-0.1,0.2c0.7,2.1,2.4,3.9,2.2,5.3
	c-0.1,0.8-8.3,6.7-8.4,8.2c0,1.4,8.2,7.3,8.4,8.2c0.2,1.4-1.4,3.2-2.2,5.3l0.1,0.2l-0.1,0.2c0,0,0,0,0,0l0,0
	c1.2,2.1,6.8,9.2,9.8,13.2v22.9c-1.7,1.4-5.9,5.1-5.9,6.3c0,1.2,4.2,5.4,5.9,6.8v0h2.1V298.5z"/>
<g>
	<g>
		
			<ellipse transform="matrix(2.251366e-03 -1 1 2.251366e-03 -16.8063 76.9804)" class="st3" cx="30.2" cy="46.9" rx="22.8" ry="23.4"/>
	</g>
	<g>
		<g>
			<g>
				<g>
					<path class="st4" d="M25.5,33.8c-0.5,0.5-0.8,1.1-0.9,1.8c-0.1,0.4-0.1,0-0.1,0.7l0,9.6c0.8-0.4,1.8-0.5,3-0.5
						c0.7,0,2,0.2,4,0.6c0.8,0.2,1.7,0.3,2.5,0.3c0.5,0,1,0,1.4-0.1c0.4-0.1,0.8-0.2,1.2-0.4l0-9.5c0-0.7-0.1-0.3-0.2-0.9
						c-0.1-0.6-0.4-1.1-0.9-1.6l7.4,0c-0.5,0.5-0.8,1.1-0.9,1.8c-0.1,0.4-0.1,1.9-0.1,8.3c0,0,0,15.4,0.1,15.8
						c0.1,0.7,0.5,1.3,0.9,1.8l-7.4,0c0.4-0.6,0.7-1.2,0.9-1.9c0.1-0.4,0.1,0,0.1-0.7l0-10.1c-0.5,0.1-1,0.2-1.7,0.3
						c-0.7,0.1-1.3,0.1-1.8,0.1c-0.6,0-1.3-0.1-2.1-0.3c-1.6-0.4-2.8-0.6-3.5-0.6c-0.5,0-1.1,0.1-1.6,0.2c-0.5,0.2-1,0.4-1.4,0.7
						l0,9.6c0,0.7,0,0.3,0.1,0.7c0.1,0.7,0.5,1.3,0.9,1.8l-7.4,0c0.4-0.6,0.7-1.2,0.9-1.9c0.1-0.4,0.1-15.8,0.1-15.8
						c0-6.4-0.1-7.9-0.2-8.4c-0.1-0.6-0.4-1.1-0.9-1.7L25.5,33.8z"/>
				</g>
				<g>
					<path class="st5" d="M39.7,56.2c2.2,0,4.5-0.9,6.1-2.6c1.6-1.6,2.5-3.7,2.4-5.9c0-2.2-1-4.4-2.6-5.9c-1.7-1.6-3.9-2.5-6.6-2.5
						c-3.6,0-6,2.7-8.2,5.2l-0.4,0.4c-0.6,0.7-1.2,1.4-1.8,2.2c-2.2,2.7-4.4,5.6-7.8,5.6c-1.5,0-2.8-0.6-3.7-1.6
						c-1-1.1-1.4-2.6-1.2-4.1l0,0c0.5-2.4,2.6-4,5.2-4c1,0,2,0.3,2.8,0.8l0.2,0.1c0.5,0.3,1,0.6,1.1,1l0.3,1.2l3.2-3.9L27.5,42
						c-0.4,0-0.8-0.4-1.3-0.7c-0.2-0.2-0.5-0.4-0.7-0.5c-0.2-0.1-0.5-0.3-0.7-0.4c-0.2-0.1-0.4-0.2-0.5-0.3l0,0l0,0
						c-1.1-0.5-2.3-0.7-3.5-0.7c-2.5,0-4.8,1-6.3,2.8c-1.7,1.7-2.4,4.2-2,6.7c0.4,2.7,2.1,5.1,4.5,6.4c1.2,0.9,2.6,1,3.8,1l0,0
						c0.2,0,0.4,0,0.6,0c3.4-0.1,5.9-2.5,8-4.8l0.8-0.8c0.6-0.7,1.2-1.4,1.8-2.2c2.2-2.7,4.4-5.6,7.8-5.6c1.5,0,2.9,0.6,3.8,1.7
						c1,1.1,1.4,2.6,1.3,4.1l0,0c-0.6,2.6-3.1,4-5.3,4c-1,0-2-0.3-2.8-0.8l-0.2-0.1c-0.5-0.3-1-0.6-1.1-1l-0.3-1.2l-3.1,3.8l1.1,0.2
						c0.4,0.1,0.6,0.1,1,0.4c1.7,1.4,3.3,2.2,5,2.3C39,56.1,39.4,56.2,39.7,56.2z"/>
				</g>
			</g>
		</g>
	</g>
</g>
<path class="st0" d="M36.5,297c-3-2.5-4.5-4.2-5-4.9c0.4-0.6,1.8-2.2,5-4.9l0.3,0.3c3,2.5,4.3,4,4.6,4.6c-0.4,0.6-1.7,2.1-4.6,4.6
	L36.5,297z"/>
<path class="st0" d="M36.5,261.4c-1-1.3-2.1-2.8-3.3-4.4c-2-2.7-4.3-5.6-5.4-7.3l0.1-0.1l-0.2-0.3c0.2-0.5,0.5-1,0.8-1.5
	c0.7-1.3,1.4-2.5,1.2-3.9c-0.1-0.9-0.8-1.5-3.8-4c-1.3-1.1-3.5-3-4.4-3.9c0.8-1,3.1-2.9,4.4-3.9c2.9-2.5,3.7-3.1,3.8-4
	c0.2-1.3-0.5-2.6-1.2-3.9c-0.2-0.5-0.5-0.9-0.7-1.4l0.1-0.1l-0.1-0.3c1.1-1.6,3.4-4.7,5.5-7.4c1.2-1.6,2.3-3.1,3.3-4.4l0.1,0.1
	c1,1.3,2.1,2.8,3.2,4.3c2,2.7,4.3,5.6,5.4,7.2l-0.1,0.1l0.2,0.3c-0.2,0.5-0.5,1-0.8,1.5c-0.7,1.3-1.4,2.5-1.2,3.9
	c0.1,0.9,0.8,1.5,3.8,4c1.3,1.1,3.5,3,4.4,3.9c-0.8,1-3.1,2.9-4.4,3.9c-2.9,2.5-3.6,3.1-3.8,4c-0.2,1.3,0.5,2.6,1.2,3.9
	c0.2,0.5,0.5,0.9,0.7,1.4l-0.1,0.1l0.1,0.3c-1.1,1.6-3.4,4.6-5.5,7.4c-1.1,1.5-2.3,3-3.2,4.3L36.5,261.4z"/>
<path class="st0" d="M36.5,190.7c-3.1-2.7-4.5-4.2-5-4.9c0.4-0.6,1.8-2.2,5-4.9l0.3,0.3c3,2.5,4.3,4,4.6,4.6
	c-0.4,0.6-1.7,2.1-4.6,4.6L36.5,190.7z"/>
<path class="st0" d="M36.5,171.3c-3.1-2.7-4.5-4.2-5-4.9c0.4-0.6,1.8-2.2,5-4.9l0.3,0.3c3,2.5,4.3,4,4.6,4.6
	c-0.4,0.6-1.7,2.1-4.6,4.6L36.5,171.3z"/>
<path class="st0" d="M36.5,131.9c-1-1.3-2.1-2.8-3.3-4.4c-2-2.7-4.3-5.6-5.4-7.3l0.1-0.1l-0.2-0.3c0.2-0.5,0.5-1,0.8-1.5
	c0.7-1.3,1.4-2.5,1.2-3.9c-0.1-0.9-0.8-1.5-3.8-4c-1.3-1.1-3.5-3-4.4-3.9c0.8-1,3.1-2.9,4.4-3.9c2.9-2.5,3.6-3.1,3.8-4
	c0.2-1.3-0.5-2.6-1.2-3.9c-0.3-0.5-0.5-0.9-0.7-1.4l0.1-0.1l-0.1-0.3c1.1-1.6,3.4-4.6,5.5-7.4c1.2-1.6,2.4-3.1,3.3-4.4
	c1,1.3,2.1,2.8,3.3,4.4c2,2.7,4.3,5.6,5.4,7.3l-0.1,0.1l0.2,0.3c-0.2,0.5-0.5,1-0.8,1.5c-0.7,1.3-1.4,2.5-1.2,3.9
	c0.1,0.9,0.8,1.5,3.8,4c1.3,1.1,3.5,3,4.4,3.9c-0.8,1-3.1,2.9-4.4,3.9c-2.9,2.5-3.6,3.1-3.8,4c-0.2,1.3,0.5,2.6,1.2,3.9
	c0.2,0.5,0.5,0.9,0.7,1.4l-0.1,0.1l0.1,0.3c-1.1,1.6-3.4,4.7-5.5,7.4c-1.1,1.5-2.3,3-3.2,4.3L36.5,131.9z"/>
<g>
	<g>
		<path d="M37.9,108.8c-0.1,0.1-0.1,0.1-0.1,0.2c0,0,0.1,0.1,0.1,0.1c0.1,0,0.1-0.1,0.1-0.1C38,108.9,37.9,108.8,37.9,108.8z"/>
		<path d="M36,104.5c-0.1,0.2-0.1,0.3,0.1,0.4c0.2,0.1,0.4,0.1,0.6,0c0.1-0.1,0.1-0.2,0.1-0.4c-0.1,0.2-0.2,0.3-0.4,0.3
			C36.1,104.9,36,104.7,36,104.5z"/>
	</g>
</g>
<g>
	<g id="V5DbvH_00000044152463094893120110000013660981626376188346_">
		<g>
			<path class="st2" d="M31.9,107.1c0.2,0.5,0.4,1,1,1.3c0.1,0.1,0.3,0,0.5,0c-0.1-0.1-0.1-0.3-0.2-0.4c-0.3-0.3-0.6-0.5-0.8-0.9
				c-0.7-1.2-1.1-2.6-1-4c0.1-1.9,0.7-3.5,2.6-4.3c1.8-0.8,3.7-0.9,5.6-0.1c0.4,0.2,0.7,0.4,1.1,0.7c0.3,0.2,0.4,0.5,0.3,0.9
				c-0.1,0.5,0,1,0.1,1.4c0.4,1.3-0.1,2.3-1.5,2.6c-0.1,0-0.3,0-0.4,0.1c-1.8,0.4-2.4,1.2-2.2,3c0,0.1,0,0.2,0,0.3
				c0,0.2-0.1,0.5-0.1,0.7c0,0.2-0.1,0.5,0,0.7c0,0,0.3,0.1,0.3,0.1c0.2-0.2,0.4-0.4,0.4-0.7c0-0.5-0.1-1-0.1-1.5c0-0.3,0-0.5,0-0.9
				c0.3,0.2,0.4,0.3,0.5,0.4c0.6,0.4,1.6,0.4,2.1-0.1c0.4-0.5,0.8-0.4,1.4-0.3c-0.1,0.3-0.1,0.7-0.3,0.9c-0.4,0.5-0.9,1-1.3,1.5
				c-0.2,0.2-0.4,0.5-0.6,0.8c0.3,0.1,0.5,0.2,0.8,0.3c0.9,0.1,1,0.4,0.6,1.2c-1,1.7-2.4,3-4.1,3.9c-0.8,0.4-1.4,0.3-2.1-0.3
				c-2.1-2.2-2.9-4.9-2.9-7.9C31.8,106.5,31.9,106.8,31.9,107.1z M32.3,104.4c0.1,0.4,0.4,0.7,0.5,1.1c0.3,1.1,1.8,1.6,2.7,1
				c0.6-0.4,0.6-1.2-0.2-1.6c-0.7-0.4-1.5-0.7-2.3-0.9c-0.6-0.1-0.8-0.2-0.9-0.8c-0.1,0-0.1,0-0.2,0.1
				C32.1,103.6,32.2,104,32.3,104.4z"/>
		</g>
	</g>
</g>
<g>
	<path class="st6" d="M27.1,241.8l0.2,0.2l0.8-0.6l1.5-1.3l0,0l3.4-3.4l3,3l-3.3,3.4l0,0l0,0l-1.2,1.6l-0.6,0.8l0.2,0.2l0.8-0.6
		l1.5-1.3l0,0l3.4-3.4l3.4,3.4l0,0l1.5,1.3l0.8,0.6l0,0l0.6,0.5l0,0l-0.5-0.6l0,0l-0.6-0.8l-1.2-1.6l0,0l0,0l-3.3-3.4l3-3l3.4,3.4
		l0,0l1.5,1.3l0.8,0.6l0,0l0.6,0.5l0,0l-0.5-0.6l0,0l-0.6-0.8l-1.2-1.6l0,0l0,0l-3.3-3.4l3.3-3.3l0,0l1.3-1.6l0.6-0.8l0,0l0.5-0.6
		l0,0l-0.6,0.5l0,0l-0.8,0.6l-1.5,1.2l0,0l-3.4,3.4l-3-3l3.3-3.3l0,0l1.3-1.6l0.6-0.8l0,0l0.5-0.6l0,0l-0.6,0.5l0,0l-0.8,0.6
		l-1.5,1.2l0,0l-3.4,3.4l-3.4-3.4l0,0l-1.5-1.2l-0.8-0.6l0,0l-0.6-0.5l0,0l0.5,0.6l0,0l0.6,0.8l1.3,1.6l0,0l3.3,3.3l-3,3l-3.4-3.4
		l0,0l-1.5-1.2l-0.8-0.6l0,0l-0.6-0.5l0,0l0.5,0.6l0,0l0.6,0.8l1.3,1.6l0,0l3.3,3.3l-3.3,3.4l0,0l0,0l-1.2,1.6L27.1,241.8z
		 M33.5,236.1l3-3l3,3l-3,3L33.5,236.1z"/>
</g>
<ellipse class="st1" cx="18.5" cy="85" rx="5.6" ry="5.7"/>
<ellipse class="st0" cx="18.5" cy="85" rx="3.2" ry="3.1"/>
<path class="st7" d="M30.2,21.4c-14.5,0-26.4,11.5-26.4,25.6c0,14.1,11.8,25.6,26.4,25.6s26.4-11.5,26.4-25.6
	C56.6,32.9,44.8,21.4,30.2,21.4z"/>
<path class="st7" d="M1.8,52.8c-0.4-1.9-0.6-3.8-0.6-5.7c0-11.2,6.8-20.9,16.5-25.5H0v31.2H1.8z"/>
<path class="st1" d="M59.2,47.1c0-15.6-13-28.3-29-28.3c-0.5,0-1.1,0.1-1.6,0.1c-3.2,0-14.7,0-28.6,0v2.7h17.8
	C8,26.1,1.2,35.8,1.2,47.1c0,2,0.2,3.9,0.6,5.7l0,0c0.2,1,0.5,1.9,0.8,2.9h0.1v0H2.6c3.7,11.4,14.7,19.7,27.6,19.7
	c10.5,0,19.6-5.5,24.7-13.6l0,237.3h2.7l0-242.8C58.6,53.3,59.2,50.3,59.2,47.1z M30.2,74c-15.3,0-27.7-12.1-27.7-27
	c0-14.9,12.4-27,27.7-27c15.3,0,27.7,12.1,27.7,27C57.9,61.9,45.5,74,30.2,74z"/>
<path class="st0" d="M2.6,47.1c0,14.9,12.4,27,27.7,27c15.3,0,27.7-12.1,27.7-27c0-14.9-12.4-27-27.7-27
	C14.9,20.1,2.6,32.2,2.6,47.1z M30.2,21.4c14.5,0,26.4,11.5,26.4,25.6c0,14.1-11.8,25.6-26.4,25.6S3.8,61.2,3.8,47.1
	C3.8,32.9,15.7,21.4,30.2,21.4z"/>
<path class="st1" d="M70.3,0H0v10.4h70.3c0.7,0,1.4,0.6,1.4,1.3V299H83l0-287.3C83,4.9,77.3,0,70.3,0z"/>
<g>
	<rect x="-5" y="0" class="st1" width="5" height="10.4"/>
</g>
<g>
	<polygon class="st1" points="57.6,301.3 57.6,301 57.6,299 54.9,299 54.9,301.3 54.9,305 57.6,305 57.6,301.7 	"/>
	<rect x="35.8" y="299" class="st1" width="2.1" height="6"/>
	<rect x="17.5" y="299" class="st1" width="2" height="6"/>
	<rect x="71.7" y="299" class="st1" width="11.3" height="6"/>
</g>
</svg>
