<?xml version="1.0" encoding="utf-8"?>
<!-- Generator: Adobe Illustrator 28.1.0, SVG Export Plug-In . SVG Version: 6.00 Build 0)  -->
<svg version="1.1" id="Layer_1" xmlns="http://www.w3.org/2000/svg" xmlns:xlink="http://www.w3.org/1999/xlink" x="0px" y="0px"
	 viewBox="0 0 83 299" style="enable-background:new 0 0 83 299;" xml:space="preserve">
<style type="text/css">
	.st0{fill:#E5C28A;}
	.st1{fill:#D9B883;}
	.st2{fill:#010101;}
	.st3{fill:#52A5DA;}
	.st4{fill:#82142E;stroke:#030303;stroke-width:1.4331;}
	.st5{fill:#D49C57;stroke:#0A2321;stroke-width:1.0737;}
	.st6{fill:#231F20;}
	.st7{fill:none;}
	.st8{fill:none;stroke:#E2C288;stroke-width:0.6605;stroke-miterlimit:10;}
	.st9{fill:url(#SVGID_1_);}
	.st10{fill:url(#SVGID_00000137089679472640058800000014466002289806621353_);}
	.st11{fill:#E2C288;}
	.st12{opacity:0.71;}
	.st13{fill:#030303;}
	.st14{fill:#21150D;}
	.st15{fill:#898588;}
	.st16{fill:#8C2B40;}
	.st17{fill:#461316;}
	.st18{fill:#6C1828;}
	.st19{fill:#641625;}
	.st20{fill:#771B30;}
	.st21{fill:#821E37;}
	.st22{fill:#5D1320;}
	.st23{fill:#3A383E;}
	.st24{fill:#4D361B;}
	.st25{fill:#EDD1A4;}
	.st26{fill:#624828;}
	.st27{fill:#86693D;}
	.st28{fill:#A08153;}
	.st29{fill:#987B4E;}
	.st30{fill:#756043;}
	.st31{fill:#B29468;}
	.st32{fill:#887459;}
	.st33{fill:#C3A574;}
	.st34{fill:#907245;}
	.st35{fill:#D4B783;}
	.st36{fill:#70552D;}
	.st37{fill:#A98A5D;}
	.st38{fill:#7E6034;}
	.st39{fill:#FFFFFF;}
	.st40{fill:#BFBABA;}
	.st41{fill:#231E1E;}
	.st42{fill:#7A6850;}
	.st43{fill:#545153;}
	.st44{fill:#574833;}
	.st45{fill:#353030;}
	.st46{fill:#D9D5D6;}
	.st47{fill:#BFA071;}
	.st48{fill:#777377;}
	.st49{fill:#D3BE9C;}
	.st50{fill:#66636B;}
	.st51{fill:#9A8064;}
	.st52{fill:#EDD197;}
	.st53{fill:#634B3D;}
	.st54{fill:#CAA277;}
	.st55{fill:#DEB37F;}
	.st56{fill:#FFE6AD;}
	.st57{fill:#FFDBA0;}
	.st58{fill:#7E5E45;}
	.st59{fill:#F2CD95;}
	.st60{fill:#FFFBD3;}
	.st61{fill:#FFFCE7;}
	.st62{fill:#B78F69;}
	.st63{fill:#FFEFBF;}
	.st64{fill:#9E7C5B;}
	.st65{fill:#E9C38F;}
	.st66{fill:url(#SVGID_00000131337271836545179250000003440247125106068402_);}
	.st67{fill:url(#SVGID_00000122689246819500350640000017700339670718172069_);}
	.st68{fill:url(#SVGID_00000172418206991022649840000009237690029909802140_);}
	.st69{fill:#D49C57;}
	.st70{fill:#686565;}
	.st71{fill:url(#SVGID_00000018199312509780224570000008447046200451563694_);}
	.st72{fill:url(#SVGID_00000045584517447969509910000009472078806046349739_);}
	.st73{fill:#755D3F;}
	.st74{clip-path:url(#SVGID_00000119837434460905886770000001587172219209154229_);}
	.st75{fill:url(#SVGID_00000060746578698030371900000009635082416992950205_);}
	.st76{fill:url(#SVGID_00000175282350678209927080000011066578674177993600_);}
	.st77{fill:url(#SVGID_00000057863664033081294270000009071662479989258415_);}
	.st78{fill:url(#SVGID_00000171716289554187157420000018221072985666457499_);}
	.st79{fill:url(#SVGID_00000062181083776720264620000001372943370626981011_);}
	.st80{fill:url(#SVGID_00000039118302614575086720000014595432321853654442_);}
	.st81{fill:#10A24A;}
	.st82{fill:#332F8F;}
	.st83{fill:url(#SVGID_00000176732835645857174940000007807362449159007666_);}
	.st84{fill:url(#SVGID_00000059298127661699273430000018148202648134739610_);}
	.st85{opacity:0.74;clip-path:url(#SVGID_00000055704609821634963260000017408890662908878782_);}
	.st86{fill:url(#SVGID_00000176037698058847951930000015848850974696570014_);}
	.st87{fill:url(#SVGID_00000119832413470593921960000016502127445067067528_);}
	.st88{clip-path:url(#SVGID_00000132069552729503070440000015282020930592093341_);}
	.st89{fill:url(#SVGID_00000084517682330240726090000010191681373014362533_);}
	.st90{fill:url(#SVGID_00000024682511669388216540000014256606926351894172_);}
	.st91{fill:url(#SVGID_00000096743782255943553570000012044888348035241354_);}
	.st92{fill:#7E6037;}
	.st93{fill:#8F7146;}
	.st94{fill:#625135;}
	.st95{fill:#282318;}
	.st96{fill:#A88044;}
	.st97{fill:#C99752;}
	.st98{fill:#F2DBBD;}
	.st99{fill:#B39265;}
	.st100{fill:#EBC47C;}
	.st101{fill:#F9F1D4;}
	.st102{fill:#F4D391;}
	.st103{fill:#F6E3AF;}
	.st104{opacity:9.000000e-02;}
	.st105{fill:url(#SVGID_00000039849512869199199470000002535790725895196815_);}
	.st106{fill:url(#SVGID_00000094616936455275965590000002749848722819511190_);}
	.st107{clip-path:url(#SVGID_00000039824079239724183550000004797399161199687327_);}
	.st108{fill:url(#SVGID_00000149352912919485986430000004297721251752040591_);}
	.st109{fill:url(#SVGID_00000041292022223835546720000010193465594000318864_);}
	.st110{fill:url(#SVGID_00000109723671572335960630000016331532080757102240_);}
</style>
<g>
	<path class="st1" d="M71.1,213c-3.1,0-5.6-2.5-5.6-5.6V3.9v-1V0h-2v2.9v1v205.5c0,3.1,2.5,5.6,5.6,5.6l13.9,0v-2L71.1,213z"/>
	<path class="st1" d="M62.2,192.3c0-1.4-8.2-7.3-8.3-8.2c-0.2-1.4,1.4-3.2,2.2-5.3l-0.1-0.2l0.1-0.2c0,0,0,0,0,0v0
		c-1.1-1.9-6.1-8.3-9.2-12.4v-20.9c1.9-1.6,5.3-4.6,5.3-5.8c0-1.1-3.3-4.2-5.3-5.8v-7.9c1.9-1.6,5.3-4.6,5.3-5.8
		c0-1.1-3.3-4.2-5.3-5.8V89.1c3.1-4.1,8.1-10.5,9.2-12.4v0c0,0,0,0,0,0l-0.1-0.2l0.1-0.2c-0.7-2.1-2.4-3.9-2.2-5.3
		c0.1-0.8,8.3-6.7,8.3-8.2c0-1.4-8.2-7.3-8.3-8.2c-0.2-1.4,1.4-3.2,2.2-5.3l-0.1-0.2L56,49c0,0,0,0,0,0v0c-1.1-1.9-6.1-8.3-9.2-12.4
		V14.9c1.9-1.6,5.3-4.6,5.3-5.8c0-1.1-3.3-4.2-5.3-5.8V2.9V0h-2.1v2.9C43,4.3,38.9,8,38.9,9.1c0,1.2,4.2,4.8,5.9,6.3v20.4
		C41.7,39.9,36.2,47,35,49l0,0c0,0,0,0,0,0l0.1,0.2l-0.1,0.2c0.7,2.1,2.4,3.9,2.2,5.3c-0.1,0.8-8.3,6.7-8.3,8.2
		c0,1.4,8.2,7.3,8.3,8.2c0.2,1.4-1.4,3.2-2.2,5.3l0.1,0.2L35,76.7c0,0,0,0,0,0l0,0c1.2,2.1,6.8,9.2,9.8,13.2v23.7
		c-1.7,1.4-5.9,5.1-5.9,6.3c0,1.2,4.2,4.8,5.9,6.3v6.9c-1.7,1.4-5.9,5.1-5.9,6.3c0,1.2,4.2,4.8,5.9,6.3v19.7
		c-3,4.1-8.5,11.2-9.8,13.2l0,0c0,0,0,0,0,0l0.1,0.2l-0.1,0.2c0.7,2.1,2.4,3.9,2.2,5.3c-0.1,0.8-8.3,6.7-8.3,8.2
		c0,1.4,8.2,7.3,8.3,8.2c0.2,1.4-1.4,3.2-2.2,5.3l0.1,0.2l-0.1,0.2c0,0,0,0,0,0l0,0c1.3,2.3,7.8,10.5,10.5,14.3
		c2.7-3.8,9.2-12,10.5-14.3v0c0,0,0,0,0,0l-0.1-0.2l0.1-0.2c-0.7-2.1-2.4-3.9-2.2-5.3C53.9,199.6,62.2,193.7,62.2,192.3z"/>
	<path class="st7" d="M45.5,14.3c-3.1-2.7-4.5-4.2-5-4.9c0.4-0.6,1.8-2.2,5-4.9l0.3,0.3c3,2.5,4.3,4,4.6,4.6
		c-0.4,0.6-1.7,2.1-4.6,4.6L45.5,14.3z"/>
	<path class="st1" d="M12.7,288.6c-0.7,0-1.4-0.6-1.4-1.3l0-284.4V0H0v2.9l0,0l0,284.4c0,6.8,5.7,11.7,12.7,11.7l70.3,0v-10.4
		L12.7,288.6z"/>
	<path class="st2" d="M52.8,226.3c-14.5,0-26.4,11.5-26.4,25.6c0,14.1,11.8,25.6,26.4,25.6s26.4-11.5,26.4-25.6
		C79.1,237.8,67.3,226.3,52.8,226.3z"/>
	<g>
		<g>
			
				<ellipse transform="matrix(2.296538e-03 -1 1 2.296538e-03 -199.2341 304.174)" class="st3" cx="52.8" cy="251.9" rx="22.8" ry="23.4"/>
		</g>
		<g>
			<g>
				<g>
					<g>
						<path class="st4" d="M57.5,265c0.5-0.5,0.8-1.1,0.9-1.8c0.1-0.4,0.1,0,0.1-0.7l0-9.6c-0.8,0.4-1.8,0.5-3,0.5
							c-0.7,0-2-0.2-4-0.6c-0.8-0.2-1.7-0.3-2.5-0.3c-0.5,0-1,0-1.4,0.1c-0.4,0.1-0.8,0.2-1.2,0.4l0,9.5c0,0.7,0.1,0.3,0.2,0.9
							c0.1,0.6,0.4,1.1,0.9,1.6l-7.4,0c0.5-0.5,0.8-1.1,0.9-1.8c0.1-0.4,0.1-1.9,0.1-8.3c0,0,0-15.4-0.1-15.8
							c-0.1-0.7-0.5-1.3-0.9-1.8l7.4,0c-0.4,0.6-0.7,1.2-0.9,1.9c-0.1,0.4-0.1,0-0.1,0.7l0,10.1c0.5-0.1,1-0.2,1.7-0.3
							c0.7-0.1,1.3-0.1,1.8-0.1c0.6,0,1.3,0.1,2.1,0.3c1.6,0.4,2.8,0.6,3.5,0.6c0.5,0,1.1-0.1,1.6-0.2c0.5-0.2,1-0.4,1.4-0.7l0-9.6
							c0-0.7,0-0.3-0.1-0.7c-0.1-0.7-0.5-1.3-0.9-1.8l7.4,0c-0.4,0.6-0.7,1.2-0.9,1.9c-0.1,0.4-0.1,15.8-0.1,15.8
							c0,6.4,0.1,7.9,0.2,8.4c0.1,0.6,0.4,1.1,0.9,1.7L57.5,265z"/>
					</g>
					<g>
						<path class="st5" d="M43.3,242.7c-2.2,0-4.5,0.9-6.1,2.6c-1.6,1.6-2.5,3.7-2.4,5.9c0,2.2,1,4.4,2.5,5.9
							c1.7,1.6,3.9,2.5,6.6,2.5c3.6,0,6-2.7,8.2-5.2l0.4-0.4c0.6-0.7,1.2-1.4,1.8-2.2c2.2-2.7,4.4-5.6,7.8-5.6
							c1.5,0,2.8,0.6,3.7,1.6c1,1.1,1.4,2.6,1.2,4.1l0,0c-0.5,2.4-2.6,4-5.2,4c-1,0-2-0.3-2.8-0.8l-0.2-0.1c-0.5-0.3-1-0.6-1.1-1
							l-0.3-1.2l-3.2,3.9l1.2,0.1c0.4,0,0.8,0.4,1.3,0.7c0.2,0.2,0.5,0.4,0.7,0.5c0.2,0.1,0.5,0.3,0.7,0.4c0.2,0.1,0.4,0.2,0.5,0.3
							l0,0l0,0c1.1,0.5,2.3,0.7,3.5,0.7c2.5,0,4.8-1,6.3-2.8c1.7-1.7,2.4-4.2,2-6.7c-0.4-2.7-2.1-5.1-4.5-6.4c-1.2-0.9-2.6-1-3.8-1
							l0,0c-0.2,0-0.4,0-0.6,0c-3.4,0.1-5.9,2.5-8,4.8l-0.8,0.8c-0.6,0.7-1.2,1.4-1.8,2.2c-2.2,2.7-4.4,5.6-7.8,5.6
							c-1.5,0-2.9-0.6-3.8-1.7c-1-1.1-1.4-2.6-1.3-4.1l0,0c0.6-2.6,3.1-4,5.3-4c1,0,2,0.3,2.8,0.8l0.2,0.1c0.5,0.3,1,0.6,1.1,1
							l0.3,1.2l3.1-3.8l-1.1-0.2c-0.4-0.1-0.6-0.1-1-0.4c-1.7-1.4-3.3-2.2-5-2.3C44,242.7,43.6,242.7,43.3,242.7z"/>
					</g>
				</g>
			</g>
		</g>
	</g>
	<path class="st0" d="M45.5,217.8c-1-1.3-2.1-2.8-3.3-4.4c-2-2.7-4.3-5.6-5.4-7.3l0.1-0.1l-0.2-0.3c0.2-0.5,0.5-1,0.8-1.5
		c0.7-1.3,1.4-2.5,1.2-3.9c-0.1-0.9-0.8-1.5-3.8-4c-1.3-1.1-3.5-3-4.4-3.9c0.8-1,3.1-2.9,4.4-3.9c2.9-2.5,3.6-3.1,3.8-4
		c0.2-1.3-0.5-2.6-1.2-3.9c-0.3-0.5-0.5-0.9-0.7-1.4l0.1-0.1l-0.1-0.3c1.1-1.6,3.4-4.6,5.5-7.4c1.2-1.6,2.4-3.1,3.3-4.4l0.1,0.1
		c1,1.3,2.1,2.8,3.2,4.3c2,2.7,4.3,5.6,5.4,7.2l-0.1,0.1l0.2,0.3c-0.2,0.5-0.5,1-0.8,1.5c-0.7,1.3-1.4,2.5-1.2,3.9
		c0.1,0.9,0.8,1.5,3.8,4c1.3,1.1,3.5,3,4.4,3.9c-0.8,1-3.1,2.9-4.4,3.9c-2.9,2.5-3.6,3.1-3.8,4c-0.2,1.3,0.5,2.6,1.2,3.9
		c0.2,0.5,0.5,0.9,0.7,1.4l-0.1,0.1l0.1,0.3c-1.1,1.6-3.4,4.7-5.5,7.4C47.6,214.9,46.4,216.5,45.5,217.8z"/>
	<path class="st0" d="M45.5,144.2c-3.1-2.7-4.5-4.2-5-4.9c0.4-0.6,1.8-2.2,5-4.9l0.3,0.3c3,2.5,4.3,4,4.6,4.6
		c-0.4,0.6-1.7,2.1-4.6,4.6L45.5,144.2z"/>
	<path class="st0" d="M45.5,124.7c-3.1-2.7-4.5-4.2-5-4.9c0.4-0.6,1.8-2.2,5-4.9l0.3,0.3c3,2.5,4.3,4,4.6,4.6
		c-0.4,0.6-1.7,2.1-4.6,4.6L45.5,124.7z"/>
	<path class="st0" d="M45.5,88.3c-1-1.3-2.1-2.8-3.3-4.4c-2-2.7-4.3-5.6-5.4-7.3l0.1-0.1l-0.2-0.4c0.2-0.5,0.5-1,0.8-1.5
		c0.7-1.3,1.4-2.5,1.2-3.9c-0.1-0.9-0.8-1.5-3.8-4c-1.3-1.1-3.5-3-4.4-3.9c0.8-1,3.1-2.9,4.4-3.9c2.9-2.5,3.6-3.1,3.8-4
		c0.2-1.3-0.5-2.6-1.2-3.9c-0.2-0.5-0.5-0.9-0.7-1.4l0.1-0.1l-0.1-0.3c1.1-1.6,3.4-4.7,5.5-7.4c1.2-1.6,2.3-3.1,3.3-4.4l0.1,0.1
		c1,1.3,2.1,2.8,3.2,4.3c2,2.7,4.3,5.6,5.4,7.2l-0.1,0.1l0.2,0.3c-0.2,0.5-0.5,1-0.8,1.5c-0.7,1.3-1.4,2.5-1.2,3.9
		c0.1,0.9,0.8,1.5,3.8,4c1.3,1.1,3.5,3,4.4,3.9c-0.8,1-3.1,2.9-4.4,3.9c-2.9,2.5-3.6,3.1-3.8,4c-0.2,1.3,0.5,2.6,1.2,3.9
		c0.3,0.5,0.5,0.9,0.7,1.4l-0.1,0.1l0.1,0.3c-1.1,1.6-3.4,4.7-5.5,7.4c-1.1,1.5-2.3,3-3.2,4.3L45.5,88.3z"/>
	<g>
		<g id="V5DbvH_00000018228514335376483160000008441017612318230413_">
			<g>
				<path class="st2" d="M40.9,196.2c0.2,0.5,0.4,1,1,1.3c0.1,0.1,0.3,0,0.5,0c-0.1-0.1-0.1-0.3-0.2-0.4c-0.3-0.3-0.6-0.5-0.8-0.9
					c-0.7-1.2-1.1-2.6-1-4c0.1-1.9,0.7-3.5,2.6-4.3c1.8-0.8,3.7-0.9,5.6-0.1c0.4,0.2,0.7,0.4,1.1,0.7c0.3,0.2,0.4,0.5,0.3,0.9
					c-0.1,0.5,0,1,0.1,1.4c0.4,1.3-0.1,2.3-1.5,2.6c-0.1,0-0.3,0-0.4,0.1c-1.8,0.4-2.4,1.2-2.2,3c0,0.1,0,0.2,0,0.3
					c0,0.2-0.1,0.5-0.1,0.7c0,0.2-0.1,0.5,0,0.7c0,0,0.3,0.1,0.3,0.1c0.2-0.2,0.4-0.4,0.4-0.7c0-0.5-0.1-1-0.1-1.5
					c0-0.3,0-0.5,0-0.9c0.3,0.2,0.4,0.3,0.5,0.4c0.6,0.4,1.6,0.4,2.1-0.1c0.4-0.5,0.8-0.4,1.4-0.3c-0.1,0.3-0.1,0.7-0.3,0.9
					c-0.4,0.5-0.9,1-1.3,1.5c-0.2,0.2-0.4,0.5-0.6,0.8c0.3,0.1,0.5,0.2,0.8,0.3c0.9,0.1,1,0.4,0.6,1.2c-1,1.7-2.4,3-4.1,3.9
					c-0.8,0.4-1.4,0.3-2.1-0.3c-2.1-2.2-2.9-4.9-2.9-7.9C40.7,195.6,40.8,195.9,40.9,196.2z M41.3,193.5c0.1,0.4,0.4,0.7,0.5,1.1
					c0.3,1.1,1.8,1.6,2.7,1c0.6-0.4,0.6-1.2-0.2-1.6c-0.7-0.4-1.5-0.7-2.3-0.9c-0.6-0.1-0.8-0.2-0.9-0.8c-0.1,0-0.1,0-0.2,0.1
					C41.1,192.7,41.2,193.1,41.3,193.5z"/>
			</g>
		</g>
	</g>
	<g>
		<path class="st6" d="M36,68.6l0.2,0.2l0.8-0.6l1.5-1.3l0,0l3.4-3.4l3,3l-3.3,3.4l0,0l0,0l-1.2,1.6l-0.6,0.8l0.2,0.2l0.8-0.6
			l1.5-1.3l0,0l3.4-3.4l3.4,3.4l0,0l1.5,1.3l0.8,0.6l0,0l0.6,0.5l0,0l-0.5-0.6l0,0l-0.6-0.8l-1.2-1.6l0,0l0,0l-3.3-3.4l3-3l3.4,3.4
			l0,0l1.5,1.3l0.8,0.6l0,0l0.6,0.5l0,0l-0.5-0.6l0,0l-0.6-0.8L53,66.2l0,0l0,0l-3.3-3.4l3.3-3.3l0,0l1.3-1.6l0.6-0.8l0,0l0.5-0.6
			l0,0L54.8,57l0,0L54,57.6l-1.5,1.2l0,0l-3.4,3.4l-3-3l3.3-3.3l0,0l1.3-1.6l0.6-0.8l0,0l0.5-0.6l0,0l-0.6,0.5l0,0L50.4,54l-1.5,1.2
			l0,0l-3.4,3.4l-3.4-3.4l0,0L40.6,54l-0.8-0.6l0,0l-0.6-0.5l0,0l0.5,0.6l0,0l0.6,0.8l1.3,1.6l0,0l3.3,3.3l-3,3l-3.4-3.4l0,0
			L37,57.6L36.2,57l0,0l-0.6-0.5l0,0l0.5,0.6l0,0l0.6,0.8l1.3,1.6l0,0l3.3,3.3l-3.3,3.4l0,0l0,0l-1.2,1.6L36,68.6z M42.5,62.8l3-3
			l3,3l-3,3L42.5,62.8z"/>
	</g>
	<ellipse class="st1" cx="64.5" cy="213.9" rx="5.6" ry="5.7"/>
	<ellipse class="st0" cx="64.5" cy="213.9" rx="3.2" ry="3.1"/>
	<path class="st7" d="M52.8,277.6c14.5,0,26.4-11.5,26.4-25.6c0-14.1-11.8-25.6-26.4-25.6s-26.4,11.5-26.4,25.6
		C26.4,266.1,38.3,277.6,52.8,277.6z"/>
	<path class="st7" d="M81.8,251.9c0,11.2-6.8,20.9-16.5,25.5H83v-31.2h-1.8C81.5,248.1,81.8,250,81.8,251.9z"/>
	<path class="st1" d="M83,246.2v-2.9h-2.6c0.3,0.9,0.6,1.9,0.8,2.9H83z"/>
	<path class="st1" d="M65.2,277.4c9.8-4.6,16.5-14.3,16.5-25.5c0-2-0.2-3.9-0.6-5.7c-0.2-1-0.5-1.9-0.8-2.9l0,0
		c-3.7-11.4-14.7-19.7-27.6-19.7c-10.5,0-19.6,5.5-24.7,13.6l0-234.4V0h-2.7v2.9h0l0,239.9c-1,2.9-1.6,5.9-1.6,9.2
		c0,15.6,13,28.3,29,28.3c0.5,0,1.1-0.1,1.6-0.1c3.2,0,14.7,0,28.6,0v-2.7L65.2,277.4z M52.8,278.9c-15.3,0-27.7-12.1-27.7-27
		s12.4-27,27.7-27c15.3,0,27.7,12.1,27.7,27S68,278.9,52.8,278.9z"/>
	<path class="st0" d="M80.4,251.9c0-14.9-12.4-27-27.7-27c-15.3,0-27.7,12.1-27.7,27c0,14.9,12.4,27,27.7,27
		C68,278.9,80.4,266.8,80.4,251.9z M52.8,277.6c-14.5,0-26.4-11.5-26.4-25.6c0-14.1,11.8-25.6,26.4-25.6s26.4,11.5,26.4,25.6
		C79.1,266.1,67.3,277.6,52.8,277.6z"/>
	<path class="st0" d="M45.5,13.7c-3.1-2.7-4.5-4.2-5-4.9c0.4-0.6,1.8-2.2,5-4.9l0.3,0.3c3,2.5,4.3,4,4.6,4.6
		c-0.4,0.6-1.7,2.1-4.6,4.6L45.5,13.7z"/>
</g>
</svg>
